<svg xmlns="http://www.w3.org/2000/svg">
<defs>
<font id="TaameyFrankCLMMedium" horiz-adv-x="0" >
  <font-face 
    font-family="TaameyFrankCLMMedium"
    font-weight="500"
    font-stretch="normal"
    units-per-em="2048"
    panose-1="2 0 0 0 0 0 0 0 0 0"
    ascent="1638"
    descent="-410"
    x-height="795"
    cap-height="1232"
    bbox="-388 -895 1670 1895"
    underline-thickness="70"
    underline-position="-310"
    unicode-range="U+0020-FB4F"
  />
<missing-glyph horiz-adv-x="942" 
d="M438 1160q-77 0 -125 -29.5t-48 -77.5q0 -24 25.5 -46t25.5 -42q0 -23 -16 -36.5t-41 -13.5q-26 0 -39.5 24.5t-13.5 59.5q0 94 64.5 143.5t172.5 49.5q112 0 178.5 -59.5t66.5 -162.5q0 -45 -16.5 -85t-34 -61.5t-50.5 -54.5l-29 -33q-30 -34 -49.5 -61t-39 -76.5
t-19.5 -97.5h-24q0 89 25 148.5t88 144.5q65 93 65 191q0 74 -48 124.5t-118 50.5zM494 328q0 -24 -17 -43t-44 -19q-24 0 -40.5 17.5t-16.5 44.5t15.5 45t41.5 18q27 0 44 -19t17 -44zM799 98v1215h-689v-1215h689zM882 1412v-1412h-855v1412h855z" />
    <glyph glyph-name="aleflamed" unicode="&#x5d0;&#x200d;&#x5dc;" horiz-adv-x="1038" 
d="M789 1052q94 -9 134 -51.5t40 -95.5q0 -92 -59 -168h-19v25v12q0 14 -27.5 27t-53.5 13l-30 -114q-2 -9 -11.5 -40t-13.5 -53.5t-4 -45.5q0 -73 47 -135l86 -110q85 -109 85 -181q0 -87 -69 -151h-27q-4 59 -52 125l-404 561l-81 89q-38 50 -100 50h-30q-52 0 -83 48.5
t-31 119.5q0 101 33 202l29 85q7 21 7 34q0 29 -36 47l-56 27q-43 21 -43 59q0 23 19 78.5t36 80.5h25q9 -33 39 -45l41 -16q63 -25 63 -77q0 -3 -8 -31t-21 -75t-21 -78l-14 -51q-10 -36 -10 -78q0 -82 60 -82h48q46 0 97 -68l302 -409q5 46 8 66.5t20.5 71.5t47.5 103
q-77 15 -105.5 60t-28.5 118q0 79 41 138h27q7 -30 36.5 -55.5t66.5 -29.5z" />
    <glyph glyph-name=".notdef" horiz-adv-x="942" 
d="M438 1160q-77 0 -125 -29.5t-48 -77.5q0 -24 25.5 -46t25.5 -42q0 -23 -16 -36.5t-41 -13.5q-26 0 -39.5 24.5t-13.5 59.5q0 94 64.5 143.5t172.5 49.5q112 0 178.5 -59.5t66.5 -162.5q0 -45 -16.5 -85t-34 -61.5t-50.5 -54.5l-29 -33q-30 -34 -49.5 -61t-39 -76.5
t-19.5 -97.5h-24q0 89 25 148.5t88 144.5q65 93 65 191q0 74 -48 124.5t-118 50.5zM494 328q0 -24 -17 -43t-44 -19q-24 0 -40.5 17.5t-16.5 44.5t15.5 45t41.5 18q27 0 44 -19t17 -44zM799 98v1215h-689v-1215h689zM882 1412v-1412h-855v1412h855z" />
    <glyph glyph-name=".null" 
 />
    <glyph glyph-name=".null" 
 />
    <glyph glyph-name="nonmarkingreturn" horiz-adv-x="682" 
 />
    <glyph glyph-name="space" unicode=" " horiz-adv-x="682" 
 />
    <glyph glyph-name="exclam" unicode="!" horiz-adv-x="494" 
d="M285 444q-4 -23 -19.5 -42.5t-23.5 -19.5q-7 0 -24.5 23.5t-17.5 38.5l-69 491q-8 72 -8 106q0 160 121 160q120 0 120 -162q0 -30 -11 -102zM131 164l87 121q16 20 28 20q11 0 25 -20l87 -121q11 -16 11 -27q0 -12 -11 -28l-87 -121q-15 -22 -25 -22t-28 22l-87 121
q-8 16 -8 28q0 11 8 27z" />
    <glyph glyph-name="quotedbl" unicode="&#x22;" horiz-adv-x="730" 
d="M577 1188q53 0 73.5 -20.5t20.5 -47.5q0 -19 -17 -69l-202 -420h-46v45q0 166 26 375q0 14 5.5 33.5t19.5 44.5t45.5 42t74.5 17zM258 1201q94 0 94 -68q0 -8 -4 -25t-8 -30l-5 -13l-202 -420h-46v44q0 167 26 376q0 17 6 37t20 43.5t45 39.5t74 16z" />
    <glyph glyph-name="numbersign" unicode="#" horiz-adv-x="972" 
d="M229 372h-173v113h188l32 225h-174v113h190l51 348h123l-51 -348h210l51 348h123l-51 -348h170v-113h-186l-32 -225h172v-113h-188l-54 -372h-123l54 372h-209l-55 -372h-123zM399 710l-32 -225h210l32 225h-210z" />
    <glyph glyph-name="dollar" unicode="$" horiz-adv-x="948" 
d="M99 865q0 138 85.5 219t230.5 102v181h107v-179q124 0 215 -82q82 -66 82 -167q0 -120 -116 -120q-54 0 -83 30.5t-29 75.5q0 27 11 46.5t23.5 28t23.5 17t11 16.5q0 44 -138 61v-393l26 -6q84 -25 145.5 -59t94.5 -68t52.5 -76t24.5 -74.5t5 -72.5q0 -92 -33 -165
t-85.5 -115t-111.5 -63t-118 -21v-203h-107v203q-42 0 -87 9.5t-90.5 31.5t-81 52.5t-57.5 77t-22 101.5q0 24 6 47.5t20 46.5t41.5 37.5t65.5 14.5q50 0 78.5 -31t28.5 -74q0 -32 -13.5 -57t-29 -36.5t-29 -22.5t-13.5 -18q0 -30 60.5 -58.5t122.5 -28.5v446
q-316 92 -316 346zM415 1094q-64 0 -121.5 -53t-57.5 -121q0 -128 179 -186v360zM522 75q97 12 152.5 65t55.5 145q0 155 -203 206q-4 1 -5 1v-417z" />
    <glyph glyph-name="percent" unicode="%" horiz-adv-x="1447" 
d="M77 759q0 50 19 110t55 119.5t83.5 109t110.5 80t129 30.5q94 0 156 -80q65 -37 124 -37q172 0 277 141h104l-707 -1232h-111l605 1058q-87 -49 -173 -49q-38 0 -85 13q2 -15 2 -29q0 -67 -26.5 -143.5t-73 -144t-118.5 -112.5t-153 -45q-95 0 -156.5 58.5t-61.5 152.5z
M329 638q93 0 174 112t81 240q0 27 -9 63q-60 21 -94 63q-51 -19 -74 -43t-67 -100q-30 -52 -46 -82t-33 -78t-17 -83q0 -39 23.5 -65.5t61.5 -26.5zM785 232q0 101 51 205t144 175.5t198 71.5q89 0 144 -56.5t55 -146.5q0 -44 -14.5 -101t-45.5 -119.5t-73 -114.5
t-104.5 -86t-132.5 -34q-98 0 -160 58t-62 148zM1294 466q0 50 -28 87.5t-68 37.5q-66 0 -135 -113q-114 -182 -114 -271q0 -40 25.5 -64.5t61.5 -24.5q93 0 175.5 109t82.5 239z" />
    <glyph glyph-name="ampersand" unicode="&#x26;" horiz-adv-x="1390" 
d="M1096 116q62 0 99.5 50t52.5 122l75 -10q-19 -137 -97.5 -217t-201.5 -80q-72 0 -128 27t-114 88q-157 -122 -328 -122q-93 0 -166.5 32t-115.5 84t-63.5 111.5t-21.5 121.5q0 113 76.5 211.5t218.5 166.5q-71 153 -71 255q0 135 81 218.5t217 83.5q119 0 193 -63
t74 -168q0 -70 -36 -133.5t-94 -105.5q-52 -36 -166 -87q158 -288 275 -423q120 138 120 258q0 80 -154 80h-17v73h481v-73h-19q-26 0 -47.5 -4.5t-37.5 -9.5t-32 -20t-26 -24.5t-25 -34t-23 -38.5t-26 -48.5t-28 -52.5q-43 -76 -113 -164q97 -104 188 -104zM604 1184
q-59 0 -96 -47.5t-37 -121.5q0 -92 73 -242q1 0 17 7t31 15t37 22t40 33.5t34.5 43.5t26 58t9.5 72q0 71 -37.5 115.5t-97.5 44.5zM729 154q-102 118 -165.5 214.5t-148.5 262.5q-67 -38 -106 -87.5t-39 -128.5q0 -132 87 -228.5t199 -96.5q73 0 173 64z" />
    <glyph glyph-name="quotesingle" unicode="'" horiz-adv-x="382" 
d="M258 1201q94 0 94 -68q0 -8 -4 -25t-8 -30l-5 -13l-202 -420h-46v44q0 167 26 376q0 17 6 37t20 43.5t45 39.5t74 16z" />
    <glyph glyph-name="parenleft" unicode="(" horiz-adv-x="593" 
d="M263 519q0 -244 54.5 -401t184.5 -270l-26 -58q-147 90 -239 205q-176 231 -176 529q0 318 200 556q80 95 215 178l26 -70q-130 -113 -184.5 -269t-54.5 -400z" />
    <glyph glyph-name="parenright" unicode=")" horiz-adv-x="593" 
d="M118 1258q78 -47 141.5 -104t105.5 -113t74 -118.5t49 -115.5t27.5 -109.5t13.5 -95.5t3 -78q0 -240 -109.5 -427.5t-304.5 -306.5l-26 63q130 115 184.5 271t54.5 400t-54.5 399.5t-184.5 269.5z" />
    <glyph glyph-name="asterisk" unicode="*" horiz-adv-x="882" 
d="M370 568q0 26 11 49t22.5 60.5t11.5 99.5v61l-53 -31l-41 -22q-6 -4 -17.5 -13.5t-16.5 -13.5l-34 -49q-32 -48 -73 -48q-38 0 -55 21t-17 44q0 89 128 89q31 0 99 38l52 31l-52 31q-43 24 -54.5 29t-31.5 8q-29 12 -65 12q-39 0 -63.5 23.5t-24.5 55.5q0 37 24.5 53.5
t46.5 16.5q25 0 43 -14.5t39.5 -42t37.5 -41.5q19 -19 26 -24t19 -10.5t30 -16.5l53 -32v130q0 9 -22.5 63.5t-22.5 75.5q0 31 22.5 51.5t49.5 20.5q29 -5 46 -21t20.5 -29t3.5 -25q0 -21 -20.5 -73t-20.5 -84q-3 -12 -3 -49v-62l54 34q9 6 16.5 9t14.5 7q34 21 53 44
q10 10 31.5 37.5t38 39.5t36.5 12q9 0 24 -3.5t33.5 -20t18.5 -43.5q0 -38 -29 -60t-59 -22q-16 0 -49.5 -6t-42.5 -13q-17 -5 -60 -30l-53 -31l53 -31q49 -28 63 -30q30 -14 53 -14l26 -3q25 -4 43 -9.5t36 -23.5t18 -46q0 -39 -25 -55.5t-47 -16.5q-21 0 -40 13t-31.5 31
t-34 42.5t-44.5 40.5q-10 5 -44 25l-52 31v-61q0 -7 -0.5 -16t-0.5 -13q0 -43 23 -103t23 -77q0 -30 -23 -51.5t-49 -21.5t-49 19t-23 54z" />
    <glyph glyph-name="plus" unicode="+" horiz-adv-x="1034" 
d="M449 500v362h136v-362h362v-136h-362v-364h-136v364h-362v136h362z" />
    <glyph glyph-name="comma" unicode="," horiz-adv-x="496" 
d="M201 -208h-5h-5.5t-5.5 1t-5.5 2.5t-3.5 4.5t-3 8t-1 11q0 10 2 15l41 159v22q0 21 -12 33l-51 61q-12 13 -12 28q0 14 12 27l95 116q17 20 31 20q12 0 29 -20l96 -116q8 -8 8 -24q0 -20 -8 -31l-174 -300q-15 -17 -28 -17z" />
    <glyph glyph-name="hyphen" unicode="-" horiz-adv-x="665" 
d="M594 573l-33 -126q0 -16 -7.5 -20.5t-24.5 -4.5h-449q-43 0 -29 34l36 126q3 15 9 20.5t22 5.5h450q20 0 26.5 -6t-0.5 -29z" />
    <glyph glyph-name="period" unicode="." horiz-adv-x="494" 
d="M152 164l95 116q17 20 31 20q12 0 29 -20l96 -116q12 -17 12 -27q0 -11 -12 -28l-96 -116q-18 -22 -29 -22q-13 0 -31 22l-95 116q-12 13 -12 28q0 14 12 27z" />
    <glyph glyph-name="slash" unicode="/" horiz-adv-x="500" 
d="M416 1258h125l-456 -1282h-124z" />
    <glyph glyph-name="zero" unicode="0" horiz-adv-x="972" 
d="M67 584q0 175 53 315.5t151.5 221t225.5 80.5q121 0 214.5 -78.5t144 -220t50.5 -323.5q0 -270 -118 -437.5t-305 -167.5q-123 0 -218 80t-146.5 218.5t-51.5 311.5zM486 65q41 0 75 28t69 81q51 122 51 353v82v32q0 76 -2 127t-15.5 123.5t-38.5 117.5q-60 102 -140 102
q-91 0 -152 -131q-43 -96 -43 -362q0 -194 12 -293t44 -158q60 -102 140 -102z" />
    <glyph glyph-name="one" unicode="1" horiz-adv-x="972" 
d="M189 1075q106 0 216.5 36t155.5 90h88q0 -60 -6 -155.5t-6 -130.5v-697v-48q0 -47 12 -57q17 -24 141 -24h68v-89h-675v89h85q101 0 126.5 13.5t25.5 66.5v717q0 75 -16 90q-14 17 -90 17h-125v82z" />
    <glyph glyph-name="two" unicode="2" horiz-adv-x="972" 
d="M483 1201q189 0 295 -91.5t106 -240.5q0 -55 -16 -105.5t-41 -91.5t-72 -89t-92 -85.5t-117 -93.5q-108 -85 -232 -209h335q82 0 105.5 18t37.5 84l15 72h84v-369h-819v48l167 210l234 249q184 191 184 391q0 99 -60.5 155t-166.5 56q-74 0 -137 -49.5t-63 -107.5
q0 -5 2.5 -10t7 -9t8 -6.5t9 -5t6.5 -3.5q42 -10 73 -37.5t31 -76.5q0 -47 -33 -75.5t-87 -28.5q-72 0 -110 49.5t-38 131.5q0 134 108.5 227t275.5 93z" />
    <glyph glyph-name="three" unicode="3" horiz-adv-x="972" 
d="M857 908q0 -60 -22.5 -110.5t-55 -79.5t-65 -49t-54.5 -27l-23 -7q-4 -3 -19 -7q124 -21 198.5 -100.5t74.5 -206.5q0 -162 -119.5 -254.5t-310.5 -92.5q-174 0 -281.5 77t-107.5 203q0 65 38 107.5t95 42.5t91.5 -27.5t34.5 -79.5q0 -27 -14 -50t-29 -34t-34.5 -22.5
t-21.5 -13.5q-5 -8 -5 -18q0 -39 70.5 -66.5t135.5 -27.5q110 0 173 69.5t63 189.5q0 47 -9 88.5t-29 79.5t-59 60.5t-94 22.5h-121q-53 0 -53 48q0 55 54 55q9 0 21.5 -1t16.5 -1q20 0 42.5 -2t25.5 -2q52 0 89.5 20.5t57 56t28 74t8.5 83.5q0 37 -8.5 70.5t-28 65
t-57 50.5t-89.5 19q-68 0 -123.5 -26t-55.5 -56q0 -10 11.5 -21.5t26 -22t26 -30t11.5 -44.5q0 -41 -27.5 -71.5t-90.5 -30.5q-66 0 -94.5 36.5t-28.5 82.5q0 121 107 197t264 76q169 0 268 -80t99 -213z" />
    <glyph glyph-name="four" unicode="4" horiz-adv-x="972" 
d="M386 89q59 0 85.5 7t34.5 22.5t8 50.5v130h-454v95l580 807h99q0 -35 -4.5 -149t-4.5 -192v-466h181v-95h-181v-130q0 -54 21.5 -67t106.5 -13h7v-89h-498v89h19zM514 394v453l-331 -453h331z" />
    <glyph glyph-name="five" unicode="5" horiz-adv-x="972" 
d="M831 1186q0 -33 -23 -73.5t-63 -78.5t-106 -63.5t-141 -25.5q-82 0 -210 30v-256q14 5 38 17t39 17.5t46.5 11t71.5 5.5q183 0 293 -107t110 -281q0 -190 -123.5 -299t-332.5 -109q-96 0 -169.5 28t-112.5 72t-57.5 89.5t-18.5 90.5q0 64 38.5 104t101.5 40
q57 0 90.5 -29t33.5 -77q0 -33 -15.5 -56t-34 -33t-34 -22.5t-15.5 -26.5q0 -40 63.5 -64.5t127.5 -24.5q112 0 175 74.5t63 232.5q0 85 -22 146.5t-58 92t-72 43.5t-75 13h-6q-76 0 -160 -49q-12 -6 -33 -41.5t-40 -35.5q-29 0 -42.5 9.5t-17.5 36.5v7l14 73q4 38 13 120.5
t13.5 122t10 99t7.5 105t2 87.5q215 -51 368 -51q66 0 123 13t89 25.5t37 12.5q14 0 14 -15z" />
    <glyph glyph-name="six" unicode="6" horiz-adv-x="972" 
d="M628 975q0 27 14.5 58t14.5 37q0 39 -85 39q-68 0 -130.5 -49.5t-96.5 -131.5q-27 -59 -45 -157.5t-18 -179.5q110 143 273 143q147 0 251 -103q104 -98 104 -249q0 -69 -25.5 -139t-73.5 -131t-129.5 -99.5t-181.5 -38.5q-196 0 -314.5 149t-118.5 403q0 97 18.5 191
t60 182t100.5 155t146.5 107t192.5 40q131 0 211.5 -58t80.5 -146q0 -55 -34.5 -89t-93.5 -34q-51 0 -86 23t-35 78zM689 369q0 110 -46 177t-136 67q-99 0 -152 -75t-53 -192q0 -67 21.5 -129.5t69 -107t110.5 -44.5q48 0 85 25.5t58.5 69.5t32 96.5t10.5 112.5z" />
    <glyph glyph-name="seven" unicode="7" horiz-adv-x="972" 
d="M597 179q0 -101 -27 -152t-102 -51q-125 0 -125 126q0 81 38.5 194t76.5 191t128 250q20 38 30 58l99 200h-106q-19 0 -112.5 6t-168.5 6h-38q-37 0 -54 -25t-33 -105l-24 -100l-83 11l52 413q95 0 250 -8.5t215 -8.5q48 0 136.5 5.5t129.5 5.5v-91l-77 -160
q-98 -217 -140.5 -341.5t-53.5 -205t-11 -218.5z" />
    <glyph glyph-name="eight" unicode="8" horiz-adv-x="972" 
d="M498 1201q155 0 255 -75t100 -196q0 -162 -196 -264q51 -23 88 -46t77 -60.5t61.5 -92.5t21.5 -124q0 -48 -12 -95.5t-43.5 -98t-79.5 -88.5t-126 -62.5t-176 -24.5q-139 0 -233.5 46.5t-135.5 133.5q-34 59 -34 133q0 56 18 102t42 75t64 55.5t66.5 39t68.5 28.5
q-41 21 -69.5 41t-62 54t-51.5 83.5t-18 110.5q0 136 100.5 230.5t274.5 94.5zM493 1111q-96 0 -151 -47.5t-55 -124.5q0 -42 15 -75.5t43.5 -57.5t56 -39t67.5 -31l104 -38q65 54 93.5 102t28.5 113q0 90 -57 144t-145 54zM476 65q116 0 187 56.5t71 158.5q0 73 -36 125.5
t-137 89.5l-146 53q-86 -40 -130 -96.5t-44 -157.5q0 -108 62 -168.5t173 -60.5z" />
    <glyph glyph-name="nine" unicode="9" horiz-adv-x="972" 
d="M343 195q0 -23 -16 -58.5t-16 -39.5q0 -32 93 -32q72 0 135.5 53t95.5 147q49 150 49 308q-53 -66 -113.5 -101t-157.5 -35q-154 0 -253 101t-99 252q0 172 120 292q116 119 288 119q198 0 317 -151.5t119 -411.5q0 -100 -19 -194.5t-61 -180t-102 -149.5t-148 -102
t-193 -38q-121 0 -204.5 55.5t-83.5 142.5q0 51 34.5 87t96.5 36q60 0 89 -30t29 -70zM669 812q0 138 -52.5 218.5t-140.5 80.5q-101 0 -147 -89q-47 -72 -47 -201q0 -79 18 -135t48 -82.5t59 -37t61 -10.5q24 0 48 5.5t52.5 22.5t50 43.5t36 74.5t14.5 110z" />
    <glyph glyph-name="colon" unicode=":" horiz-adv-x="494" 
d="M152 761l95 116q18 21 31 21q11 0 29 -21l96 -116q12 -17 12 -27t-12 -27l-96 -116q-17 -23 -29 -23q-14 0 -31 23l-95 116q-12 13 -12 27t12 27zM152 164l95 116q17 20 31 20q12 0 29 -20l96 -116q12 -17 12 -27q0 -11 -12 -28l-96 -116q-18 -22 -29 -22q-13 0 -31 22
l-95 116q-12 13 -12 28q0 14 12 27z" />
    <glyph glyph-name="semicolon" unicode=";" horiz-adv-x="496" 
d="M201 -208q-29 0 -29 27q0 10 2 15l41 159v22q0 21 -12 33l-51 61q-12 13 -12 28q0 14 12 27l95 116q17 20 31 20q12 0 29 -20l96 -116q8 -8 8 -24q0 -20 -8 -31l-174 -300q-15 -17 -28 -17zM152 761l95 116q18 21 31 21q11 0 29 -21l96 -116q12 -17 12 -27t-12 -27
l-96 -116q-17 -23 -29 -23q-14 0 -31 23l-95 116q-12 13 -12 27t12 27z" />
    <glyph glyph-name="less" unicode="&#x3c;" horiz-adv-x="1034" 
d="M952 748l-679 -316l679 -316v-145l-868 396v130l868 396v-145z" />
    <glyph glyph-name="equal" unicode="=" horiz-adv-x="1034" 
d="M87 191v137h860v-137h-860zM87 536v136h860v-136h-860z" />
    <glyph glyph-name="greater" unicode="&#x3e;" horiz-adv-x="1034" 
d="M82 748v145l869 -396v-130l-869 -396v145l679 316z" />
    <glyph glyph-name="question" unicode="?" horiz-adv-x="826" 
d="M410 1201q164 0 262 -76.5t98 -202.5q0 -54 -19 -98t-53 -78t-70.5 -62t-83 -65.5t-78.5 -72.5q-33 -39 -46 -81t-26 -59q-18 -25 -25 -25q-10 0 -27.5 23.5t-17.5 37.5q0 86 51 166q64 87 127 150q54 63 54 174q0 36 -12.5 64.5t-32 45.5t-45.5 28t-50.5 15t-50.5 4
q-63 0 -86 -26t-23 -97q0 -12 -1.5 -29t-1.5 -22q0 -75 -89 -75q-66 0 -93.5 35.5t-27.5 88.5q0 105 104.5 171t262.5 66zM254 164l86 121q17 20 29 20q11 0 25 -20l86 -121q10 -17 10 -27q0 -11 -10 -28l-86 -121q-18 -22 -27 -22t-27 22l-86 121q-10 14 -10 28q0 13 10 27
z" />
    <glyph glyph-name="at" unicode="@" horiz-adv-x="1257" 
d="M672 1169q-221 0 -362 -155.5t-141 -397.5q0 -241 145 -398q143 -155 367 -155q261 0 406 258h104q-15 -36 -41 -77t-72.5 -90t-102.5 -87.5t-137.5 -64.5t-170.5 -26q-167 0 -302.5 81.5t-213.5 226.5t-78 324q0 133 38.5 244.5t99.5 184.5t140 124.5t158 74t155 22.5
q146 0 270.5 -69.5t196.5 -188t72 -258.5q0 -98 -36 -190.5t-92.5 -157.5t-125.5 -104t-135 -39q-53 0 -85.5 31t-32.5 80v34q-44 -70 -85.5 -102.5t-96.5 -32.5q-89 0 -151.5 69t-62.5 185q0 93 35.5 173.5t88.5 131t111 79t108 28.5q99 0 134 -111l27 95h150l-125 -493
q-6 -23 -6 -51q0 -18 12.5 -29.5t31.5 -11.5q33 0 75 31.5t80.5 83t65 129.5t26.5 160q0 80 -31 157.5t-86 140.5t-140.5 102t-184.5 39zM744 734q0 53 -19 88t-58 35q-63 0 -107 -72q-51 -76 -78.5 -165.5t-27.5 -156.5q0 -76 24.5 -105t57.5 -29q54 0 103.5 70t77 163.5
t27.5 171.5z" />
    <glyph glyph-name="A" unicode="A" horiz-adv-x="1232" 
d="M645 1258l435 -1069q27 -67 52.5 -88t91.5 -21h24v-80h-529v80h71q106 0 106 45q0 10 -14 46l-92 228h-452l-56 -150q-16 -39 -16 -72q0 -97 138 -97h35v-80h-453v80h7q73 0 111 41.5t77 139.5l392 997h72zM561 976l-189 -484h382z" />
    <glyph glyph-name="B" unicode="B" horiz-adv-x="1232" 
d="M1143 335q0 -113 -64 -190t-167.5 -111t-240.5 -34h-620v80h31q101 0 130 12q24 16 24 68v912q0 52 -24 68q-29 12 -130 12h-31v80h613q143 0 230.5 -34t136.5 -113q48 -71 48 -153q0 -228 -277 -289q164 -29 252.5 -102.5t88.5 -205.5zM539 1152q-64 0 -88 -17.5
t-24 -67.5v-389h152q155 0 228.5 50.5t73.5 181.5q0 75 -22 125.5t-63.5 74.5t-85 33t-102.5 9h-69zM597 80q176 0 256.5 55.5t80.5 204.5q0 166 -123 225q-73 32 -234 32h-150v-409q0 -67 18 -87.5t81 -20.5h71z" />
    <glyph glyph-name="C" unicode="C" horiz-adv-x="1232" 
d="M655 1258q84 0 153.5 -27.5t148.5 -87.5l69 101h65q0 -82 12.5 -246.5t12.5 -246.5h-75q-54 175 -98.5 254.5t-123.5 127.5q-79 45 -165 45t-159 -43.5t-109 -112.5q-84 -143 -84 -425q0 -149 26.5 -255.5t76.5 -168.5t116 -90t153 -28q64 0 118 16.5t90.5 40.5t67 61
t48 69t31.5 74t19.5 65.5t11.5 53.5l80 -13q-28 -208 -151.5 -328t-334.5 -120q-168 0 -300 80.5t-204.5 224t-72.5 325.5q0 258 160 449q172 205 418 205z" />
    <glyph glyph-name="D" unicode="D" horiz-adv-x="1327" 
d="M234 160v912q0 53 -26 68q-26 12 -126 12h-33v80h543q245 0 382.5 -69t213.5 -229q61 -135 61 -311q0 -192 -68.5 -332t-199.5 -216q-135 -75 -358 -75h-574v80h33q100 0 126 12q26 15 26 68zM1024 616q0 104 -12 184t-41 148t-75.5 112t-118 68t-166.5 24h-89
q-62 0 -80 -15q-17 -17 -17 -81v-882q0 -63 15 -78q17 -16 82 -16h116q74 0 130 14t105.5 50t81.5 95.5t50.5 154t18.5 222.5z" />
    <glyph glyph-name="E" unicode="E" horiz-adv-x="1232" 
d="M660 80q191 0 275 82t121 294h76v-456h-1083v80h31q102 0 128 12q26 15 26 68v912q0 53 -26 68q-26 12 -128 12h-31v80h1026q0 -226 24 -437h-73q-14 80 -30.5 136.5t-42 96.5t-54 64t-72.5 37.5t-90.5 18t-115.5 4.5h-89q-67 0 -87 -15.5t-20 -69.5v-389h41
q239 0 239 233h80v-559h-80q0 101 -37 162.5t-91 72.5q-39 10 -118 10h-34v-435q0 -21 3 -33t14.5 -25t37.5 -18.5t68 -5.5h112z" />
    <glyph glyph-name="F" unicode="F" horiz-adv-x="1138" 
d="M466 678q239 0 239 233h80v-559h-80q0 103 -37 163.5t-91 71.5q-37 10 -118 10h-34v-437q0 -54 26 -68q26 -12 128 -12h56v-80h-586v80h31q102 0 128 12q26 15 26 68v912q0 53 -26 68q-26 12 -128 12h-31v80h1016v-437h-66q-20 122 -41 189t-57 98q-77 70 -290 70h-79
q-67 0 -87 -15.5t-20 -69.5v-389h41z" />
    <glyph glyph-name="G" unicode="G" horiz-adv-x="1327" 
d="M667 1258q92 0 159 -25.5t152 -92.5l66 104h65v-223v-256h-61q-53 208 -147.5 310.5t-240.5 102.5q-50 0 -94.5 -11.5t-95.5 -49.5t-87.5 -99t-61 -170.5t-24.5 -253.5q0 -107 15.5 -192t36.5 -135.5t53 -88.5t54.5 -54t50.5 -30q77 -39 159 -39q84 0 156 38.5t106 102.5
q35 70 35 183q0 69 -24 85q-23 17 -132 17h-32v80h543v-80h-26q-120 0 -143 -24q-11 -13 -11 -105v-378h-71l-63 156q-84 -84 -166 -120t-189 -36q-86 0 -168.5 24.5t-156.5 75.5t-130 123t-89 174.5t-33 222.5q0 340 247 539q153 125 348 125z" />
    <glyph glyph-name="H" unicode="H" horiz-adv-x="1421" 
d="M579 1152q-72 0 -103.5 -7t-41 -22t-9.5 -51v-388h572v388q0 52 -24 68q-29 12 -130 12h-24v80h553v-80h-31q-100 0 -129 -12q-24 -15 -24 -68v-912q0 -53 24 -68q29 -12 129 -12h31v-80h-560v80h31q101 0 130 12q24 16 24 68v432h-572v-432q0 -54 26 -68q26 -12 128 -12
h32v-80h-562v80h31q102 0 128 12q26 15 26 68v912q0 53 -26 68q-26 12 -128 12h-31v80h562v-80h-32z" />
    <glyph glyph-name="I" unicode="I" horiz-adv-x="694" 
d="M444 1072v-912q0 -53 24 -68q29 -12 128 -12h34v-80h-565v80h34q101 0 130 12q24 16 24 68v912q0 52 -24 68q-29 12 -130 12h-34v80h565v-80h-34q-99 0 -128 -12q-24 -15 -24 -68z" />
    <glyph glyph-name="J" unicode="J" horiz-adv-x="948" 
d="M111 208q0 -22 12 -47t35.5 -49.5t65 -40.5t93.5 -16q153 0 202 148q22 65 22 270v599q0 53 -26 68q-26 12 -126 12h-32v80h559v-80h-32q-101 0 -130 -12q-24 -16 -24 -68v-615q0 -89 -7.5 -154.5t-31 -131t-64.5 -106t-111.5 -66t-167.5 -25.5q-157 0 -240 74
q-99 80 -99 217q0 91 47.5 149.5t122.5 58.5q56 0 92 -34t36 -89q0 -56 -32 -89.5t-75 -33.5q-28 0 -63 9h-6q-20 0 -20 -28z" />
    <glyph glyph-name="K" unicode="K" horiz-adv-x="1327" 
d="M427 558l418 420q83 83 83 123q0 51 -111 51h-42v80h525v-80q-160 0 -288 -137l-254 -254l413 -595q37 -53 67.5 -69.5t99.5 -16.5h32v-80h-583v80h53q116 0 116 39q0 19 -34 72l-297 435l-198 -199v-267q0 -53 24 -68q29 -12 129 -12h33v-80h-562v80h31q101 0 130 12
q24 16 24 68v912q0 52 -24 68q-29 12 -130 12h-31v80h562v-80h-33q-100 0 -129 -12q-24 -15 -24 -68v-514z" />
    <glyph glyph-name="L" unicode="L" horiz-adv-x="1138" 
d="M435 162q0 -21 3 -33t14.5 -25t37.5 -18.5t68 -5.5h72q216 0 295 99q75 95 102 289h76v-468h-1043v80h30q102 0 128 12q26 14 26 68v912q0 54 -26 68q-26 12 -128 12h-30v80h560v-80h-31q-102 0 -128 -12q-26 -15 -26 -68v-910z" />
    <glyph glyph-name="M" unicode="M" horiz-adv-x="1611" 
d="M490 1232l327 -909l313 909h428v-80h-31q-101 0 -128 -12q-25 -15 -25 -68v-912q0 -53 25 -68q27 -12 128 -12h31v-80h-560v80h31q102 0 128 12q26 15 26 68v963l-381 -1123h-68l-406 1123v-754q0 -176 37 -229q43 -60 159 -60v-80h-486v80q117 0 160 60q38 53 38 229
v703q0 52 -24 68q-29 12 -130 12h-33v80h441z" />
    <glyph glyph-name="N" unicode="N" horiz-adv-x="1390" 
d="M232 1096q-22 32 -57.5 44t-99.5 12h-43v80h352l681 -906v536q0 67 -4.5 111.5t-16.5 81t-34.5 56.5t-56.5 30.5t-84 10.5v80h486v-80q-121 0 -159.5 -62t-38.5 -228v-886h-72l-761 1028v-634q0 -166 38.5 -228t158.5 -62v-80h-487v80q118 0 161 60q37 53 37 230v726z
" />
    <glyph glyph-name="O" unicode="O" horiz-adv-x="1327" 
d="M77 614q0 131 42.5 248.5t118.5 205t188.5 139t244.5 51.5q246 0 413 -186q167 -185 167 -456q0 -275 -169 -459q-168 -183 -418 -183q-165 0 -299.5 82.5t-211 229.5t-76.5 328zM669 1178q-57 0 -106 -15t-82.5 -37t-61.5 -54t-43.5 -59.5t-28.5 -61.5t-17.5 -51
t-8.5 -36q-19 -95 -19 -244q0 -144 17 -239t68 -180q96 -146 277 -146q56 0 104.5 15t81.5 37.5t60.5 55t43 60t28.5 61.5t17 50.5t8 34.5q19 97 19 247q0 176 -22.5 264.5t-63.5 150.5q-95 147 -271 147z" />
    <glyph glyph-name="P" unicode="P" horiz-adv-x="1138" 
d="M645 1232q116 0 203 -23t135 -56.5t77.5 -81.5t38.5 -89t9 -88q0 -35 -7.5 -70.5t-26 -79t-58.5 -84t-98 -68.5q-96 -44 -302 -44h-193v-388q0 -52 24 -68q29 -12 130 -12h44v-80h-573v80h31q100 0 129 12q24 15 24 68v912q0 53 -24 68q-29 12 -129 12h-31v80h597z
M527 1152q-69 0 -86.5 -16t-17.5 -71v-437h207q268 0 268 259q0 58 -12 102.5t-40 83t-80.5 59t-128.5 20.5h-110z" />
    <glyph glyph-name="Q" unicode="Q" horiz-adv-x="1327" 
d="M1132 -184q36 0 52 47t16 103h77q0 -69 -14.5 -122t-37 -84t-53 -50.5t-58 -26t-56.5 -6.5q-113 0 -172.5 93.5t-59.5 229.5q-78 -26 -152 -26q-249 0 -423 186q-174 188 -174 454q0 124 43 240.5t118.5 206t186.5 143.5t237 54q162 0 297.5 -81.5t214.5 -226t79 -320.5
q0 -332 -270 -557q22 -70 42 -120t34.5 -76t29 -40.5t23.5 -17.5t20 -3zM647 452q98 0 176 -59t116 -190q45 76 66.5 162t21.5 255q0 108 -13 194t-31.5 138t-46 91.5t-48.5 57t-48 32.5q-81 45 -174 45q-193 0 -277 -151q-87 -156 -87 -413q0 -292 99 -425v31
q0 105 69.5 168.5t176.5 63.5zM480 203q0 -80 52 -114t127 -34q87 0 160 37v17q0 118 -44 190.5t-137 72.5q-71 0 -114.5 -47t-43.5 -122z" />
    <glyph glyph-name="R" unicode="R" horiz-adv-x="1232" 
d="M778 333q-7 60 -20.5 103t-41 82t-77 59t-120.5 20h-99v-437q0 -53 24 -68q29 -12 129 -12h31v-80h-560v80h31q101 0 130 12q24 16 24 68v912q0 52 -24 68q-29 12 -130 12h-31v80h591q95 0 174 -17t142 -52t98.5 -95t35.5 -141q0 -255 -363 -306q95 -25 151.5 -83
t85.5 -180l27 -107q21 -81 37.5 -114t48.5 -33q39 0 56 51.5t17 117.5h72q0 -47 -5.5 -88t-20.5 -81t-38 -68t-61 -45t-87 -17q-57 0 -100 23t-68.5 63.5t-39 85.5t-19.5 100v87zM538 1152q-59 0 -87 -7t-28 -29q-3 -7 -3 -63v-375h188q147 0 207.5 63.5t60.5 183.5
q0 118 -61.5 172.5t-184.5 54.5h-92z" />
    <glyph glyph-name="S" unicode="S" horiz-adv-x="1075" 
d="M116 901q0 162 101.5 259.5t272.5 97.5q189 0 310 -118l69 102h63v-447h-53q-20 77 -49 140t-74.5 120t-113 89t-150.5 32q-110 0 -176.5 -55.5t-66.5 -145.5q0 -151 224 -210l182 -46q185 -46 250 -108q102 -101 102 -261q0 -173 -112 -274.5t-299 -101.5
q-122 0 -194.5 26.5t-164.5 101.5l-77 -116h-73v487h73q5 -25 10 -46.5t21 -67t35.5 -82t54.5 -80.5t76 -73.5t102 -50t132 -20.5q138 0 210.5 71.5t72.5 167.5q0 33 -8 61t-19 47.5t-31 36.5t-35.5 27t-42.5 20t-40.5 14t-41.5 10.5t-35 8.5l-162 41q-177 47 -260 122
t-83 221z" />
    <glyph glyph-name="T" unicode="T" horiz-adv-x="1138" 
d="M394 1152q-56 0 -98 -18.5t-70.5 -50t-50 -83.5t-34 -107t-24.5 -134h-59v473h1022v-474h-60q-5 38 -9 61.5t-11.5 60.5t-15 61t-19.5 55t-25.5 51.5t-33.5 42t-42.5 34t-52.5 20.5t-65 8q-80 0 -80 -61v-931q0 -53 23 -68q31 -12 128 -12h45v-80h-586v80h45q99 0 130 12
q23 15 23 68v931q0 61 -80 61z" />
    <glyph glyph-name="U" unicode="U" horiz-adv-x="1390" 
d="M1073 862q0 172 -38 231t-158 59v80h487v-80q-118 0 -161 -60q-37 -53 -37 -230v-388q0 -85 -13 -155t-46.5 -135.5t-86.5 -110.5t-139 -72t-198 -27q-300 0 -422 176q-51 76 -51 193v729q0 53 -26 68q-26 12 -126 12h-29v80h558v-80h-32q-102 0 -128 -12
q-26 -15 -26 -68v-621q0 -120 10 -167.5t45 -95.5q89 -121 273 -121q74 0 134 21.5t95 52t60 69.5t34.5 67.5t12.5 53.5q8 54 8 154v377z" />
    <glyph glyph-name="V" unicode="V" horiz-adv-x="1232" 
d="M956 1063q0 45 -40.5 67t-98.5 22h-32v80h463v-80h-17q-71 0 -111 -32q-38 -38 -76 -135l-392 -1011h-68l-432 1082q-22 60 -50.5 78t-81.5 18h-34v80h533v-80h-68q-106 0 -106 -43q0 -15 13 -51l313 -793l264 703q21 55 21 95z" />
    <glyph glyph-name="W" unicode="W" horiz-adv-x="1674" 
d="M1068 1152q-69 0 -96 -9.5t-27 -36.5q0 -9 12 -48l236 -747l205 693q10 26 10 59q0 89 -147 89h-13v80h418v-80h-7q-41 0 -70.5 -12.5t-48.5 -40t-29.5 -53.5t-23.5 -70l-301 -1002h-70l-276 849l-253 -849h-73l-369 1111q-15 43 -32 55t-70 12h-33v80h482v-80h-77
q-74 0 -74 -34q0 -12 9 -43l246 -764l198 655l-45 133q-11 32 -35 42.5t-72 10.5h-40v80h494v-80h-28z" />
    <glyph glyph-name="X" unicode="X" horiz-adv-x="1201" 
d="M323 162q0 -32 25 -57t85 -25h43v-80h-485v80h9q127 0 222 137l276 384l-336 486q-27 42 -54.5 53.5t-88.5 11.5h-29v80h527v-80h-65q-82 0 -82 -22q0 -13 19 -43l227 -328l184 268q24 35 24 58q0 67 -117 67h-24v80h469v-80h-27q-68 0 -114.5 -32t-119.5 -128l-227 -309
l358 -514q42 -62 69.5 -75.5t109.5 -13.5h21v-80h-560v80h48q76 0 95 4.5t19 26.5q0 21 -22 53l-254 360l-198 -287q-27 -38 -27 -75z" />
    <glyph glyph-name="Y" unicode="Y" horiz-adv-x="1201" 
d="M905 1075q0 44 -34 60.5t-100 16.5h-39v80h485v-80h-14q-39 0 -72 -12t-54 -26t-44.5 -44t-33.5 -47t-31 -54l-255 -459v-350q0 -52 24 -68q27 -12 128 -12h45v-80h-586v80h45q100 0 129 12q24 15 24 68v330l-368 583q-27 46 -55.5 62.5t-83.5 16.5h-37v80h544v-80h-97
q-67 0 -67 -32q0 -18 19 -48l287 -463l212 377q29 58 29 89z" />
    <glyph glyph-name="Z" unicode="Z" horiz-adv-x="1042" 
d="M517 1152q-92 0 -150 -17t-97 -62t-60.5 -106t-42.5 -167h-42v432h846v-61l-701 -1091h283q113 0 179.5 35.5t106 119t62.5 239.5h80v-474h-940v61l698 1091h-222z" />
    <glyph glyph-name="bracketleft" unicode="[" horiz-adv-x="568" 
d="M266 -123h241v-61h-394v1416h394v-63h-241v-1292z" />
    <glyph glyph-name="backslash" unicode="\" horiz-adv-x="1034" 
d="M225 1258l683 -1258h-99l-683 1258h99z" />
    <glyph glyph-name="bracketright" unicode="]" horiz-adv-x="568" 
d="M300 1171h-239v61h393v-1416h-393v63h239v1292z" />
    <glyph glyph-name="asciicircum" unicode="^" horiz-adv-x="1034" 
d="M945 543h-148l-278 530l-282 -530h-148l356 689h146z" />
    <glyph glyph-name="underscore" unicode="_" horiz-adv-x="853" 
d="M0 -125h853v-104h-853v104z" />
    <glyph glyph-name="grave" unicode="`" horiz-adv-x="568" 
d="M29 1145q0 27 17 43.5t43 16.5q32 0 85 -53l239 -239h-70l-271 166q-43 27 -43 66z" />
    <glyph glyph-name="a" unicode="a" horiz-adv-x="948" 
d="M121 608q0 94 95.5 153.5t237.5 59.5q163 0 249 -68q68 -56 68 -203v-343q0 -69 16 -93.5t49 -24.5q16 0 41 9.5t33 9.5q17 0 17 -21q0 -37 -48 -68t-109 -31q-32 0 -55.5 6.5t-51 35t-43.5 79.5q-116 -135 -297 -135q-109 0 -178.5 53t-69.5 147q0 55 22 100.5t73 78
t89.5 53.5t117.5 40t106.5 24.5t105.5 18.5q15 3 22 4v67q0 94 -40 141t-144 47q-56 0 -104 -19t-48 -48q0 -4 18.5 -32.5t18.5 -59.5q0 -47 -29 -67t-63 -20q-37 0 -68 24.5t-31 81.5zM247 198q0 -59 38.5 -96t96.5 -37q81 0 147 54.5t75 116.5q7 25 7 105v79
q-197 -32 -280.5 -79t-83.5 -143z" />
    <glyph glyph-name="b" unicode="b" horiz-adv-x="948" 
d="M147 1080q0 55 -14 70.5t-60 15.5h-59v92h293v-570q52 77 98 105t134 28q156 0 252 -117t96 -301q0 -187 -104 -308t-262 -121q-154 0 -256 135l-84 -135h-65q31 139 31 442v664zM708 386q0 83 -13.5 147.5t-33.5 101.5t-47.5 60t-52.5 31t-52 8q-29 0 -54.5 -7
t-55.5 -29.5t-51 -59.5t-35 -103t-14 -153q0 -80 14.5 -141t36.5 -97t51.5 -58.5t56.5 -30t56 -7.5q54 0 93 28t60.5 77.5t31 107t9.5 125.5z" />
    <glyph glyph-name="c" unicode="c" horiz-adv-x="757" 
d="M459 79q65 0 112.5 38.5t88.5 133.5l67 -26q-51 -128 -120.5 -189.5t-191.5 -61.5q-160 0 -258.5 113.5t-98.5 296.5q0 190 106 313.5t275 123.5q117 0 189 -60q77 -56 77 -143q0 -51 -29 -83.5t-75 -32.5q-47 0 -75 28t-28 67q0 30 22.5 63.5t22.5 35.5q0 19 -28 35.5
t-68 16.5q-95 0 -152.5 -94.5t-57.5 -250.5q0 -140 56 -232t166 -92z" />
    <glyph glyph-name="d" unicode="d" horiz-adv-x="979" 
d="M809 198q0 -79 21 -102t85 -23h30v-73h-296v123q-80 -149 -236 -149q-151 0 -245.5 118t-94.5 297q0 117 42 215t120.5 157.5t177.5 59.5q142 0 236 -126v385q0 54 -15.5 70t-58.5 16h-101v92h335v-1060zM649 394q0 94 -19.5 163t-51.5 104.5t-64.5 51.5t-66.5 16
q-57 0 -99.5 -36.5t-62.5 -88.5q-32 -81 -32 -235q0 -88 18.5 -151t49 -94t61 -44t63.5 -13q68 0 115.5 49.5t68 121t20.5 156.5z" />
    <glyph glyph-name="e" unicode="e" horiz-adv-x="853" 
d="M442 821q157 0 254.5 -120.5t97.5 -306.5v-10h-553v-14q0 -71 16 -126t40 -87.5t57 -53.5t63 -28.5t61 -7.5q81 0 140.5 39.5t115.5 142.5l60 -32q-105 -243 -349 -243q-172 0 -278.5 110.5t-106.5 290.5q0 192 108 319t274 127zM611 521q0 103 -47 165t-125 62
q-55 0 -96.5 -32.5t-62 -82t-29.5 -94t-9 -82.5h299q40 0 55 13t15 51z" />
    <glyph glyph-name="f" unicode="f" horiz-adv-x="568" 
d="M550 1084q0 26 12.5 49.5t12.5 27.5q0 29 -58 29q-55 0 -96 -35t-59 -87q-19 -51 -19 -175v-98h188v-73h-188v-580q0 -50 22 -67q30 -14 108 -14h30v-61h-455v61h7q75 0 105 14q23 16 23 67v580h-151v73h151v53q0 99 14 164t54 120q91 126 264 126q65 0 111.5 -15.5
t69.5 -41.5t33 -51.5t10 -52.5q0 -46 -27 -75t-69 -29q-33 0 -63 22.5t-30 68.5z" />
    <glyph glyph-name="g" unicode="g" horiz-adv-x="916" 
d="M195 186q0 -35 27 -47.5t113 -12.5h174q99 0 156 -9t86.5 -28t48.5 -55q28 -46 28 -111q0 -135 -108 -204.5t-321 -69.5q-66 0 -126 9t-114.5 28t-87 56t-32.5 87q0 106 157 162q-114 38 -114 147q0 74 41.5 114t120.5 57q-64 29 -103.5 89.5t-39.5 139.5q0 37 7 71
t29 74.5t57 69.5t98 48.5t145 19.5q114 0 212 -65q58 54 90.5 71.5t72.5 17.5q47 0 80 -26t33 -68q0 -38 -22 -62.5t-55 -24.5q-32 0 -50 13.5t-21.5 30t-8.5 30t-14 13.5q-19 0 -58 -41q63 -73 63 -167q0 -28 -3 -53t-17.5 -62t-39 -65.5t-72 -54.5t-112.5 -38
q-44 -7 -160 -7q-160 0 -160 -77zM602 541q0 62 -16 106t-43 64.5t-53 28.5t-55 8q-87 0 -133 -57t-46 -155q0 -95 45 -151.5t127 -56.5q85 0 129.5 57.5t44.5 155.5zM708 -123q0 48 -37.5 75.5t-73.5 27.5h-303q-65 -36 -89 -65.5t-24 -71.5q0 -34 19.5 -58.5t53 -37
t71 -18t81.5 -5.5q73 0 128.5 10.5t87.5 26t52.5 36.5t27 40.5t6.5 39.5z" />
    <glyph glyph-name="h" unicode="h" horiz-adv-x="1042" 
d="M181 1080q0 54 -14 70t-59 16h-82v92h315v-603q111 166 270 166q102 0 172 -60.5t87 -152.5q7 -28 7 -130v-336q0 -49 23 -65t105 -16h7v-61h-432v61h7q84 0 107 16t23 65v343q0 59 -8.5 100.5t-25 64t-28 31.5t-30.5 19q-33 17 -67 17q-49 0 -101 -31t-85 -99
q-31 -67 -31 -201v-244q0 -49 23.5 -65t106.5 -16h7v-61h-432v61h7q82 0 105 16t23 65v938z" />
    <glyph glyph-name="i" unicode="i" horiz-adv-x="537" 
d="M191 618q0 53 -13 69t-60 16h-87v92h321v-653q0 -49 22.5 -65t106.5 -16h12v-61h-442v61h12q82 0 105 16t23 65v476zM172 1121q0 41 28.5 70t70.5 29t70.5 -29t28.5 -70t-29 -70t-71 -29t-70 31t-28 68z" />
    <glyph glyph-name="j" unicode="j" horiz-adv-x="505" 
d="M67 -273q39 0 65 22.5t39 67.5t17.5 96.5t4.5 125.5v579q0 53 -12 70q-15 15 -62 15h-99v92h333v-674q0 -132 -13 -211t-57 -144q-81 -111 -232 -111q-81 0 -136 37t-55 103q0 46 28 74.5t68 28.5q32 0 60 -22.5t28 -58.5q0 -14 -10 -38t-10 -30q0 -22 43 -22zM174 1121
q0 42 29.5 70.5t69.5 28.5t69.5 -28.5t29.5 -70.5t-29.5 -70.5t-71.5 -28.5q-39 0 -68 29.5t-29 69.5z" />
    <glyph glyph-name="k" unicode="k" horiz-adv-x="1012" 
d="M179 1080q0 55 -14 70.5t-59 15.5h-82v92h316v-845l230 222q39 37 39 66q0 33 -80 33h-53v61h449v-61q-89 -11 -154.5 -45.5t-133.5 -103.5l-77 -75l242 -331q56 -68 91 -88.5t109 -29.5v-61h-451v61h33q75 0 75 29q0 12 -12 31l-203 285l-104 -99v-165q0 -51 22 -67
q30 -14 107 -14h7v-61h-432v61h7q76 0 106 14q22 16 22 67v938z" />
    <glyph glyph-name="l" unicode="l" horiz-adv-x="537" 
d="M188 1080q0 54 -14 70t-58 16h-84v92h316v-1116q0 -49 23.5 -65t106.5 -16h12v-61h-442v61h12q82 0 105 16.5t23 64.5v938z" />
    <glyph glyph-name="m" unicode="m" horiz-adv-x="1517" 
d="M538 717q-86 0 -140.5 -76t-54.5 -189v-309q0 -51 22 -68q30 -14 106 -14h7v-61h-430v61h7q75 0 105 14q19 14 19 69v475q0 56 -8 69q-17 15 -62 15h-70v92h304v-131q98 157 246 157q87 0 149.5 -47t85.5 -124q104 171 267 171q56 0 102 -19.5t74.5 -49.5t45 -57.5
t23.5 -52.5q11 -44 11 -118v-381q0 -52 22 -68q30 -14 106 -14h6v-61h-431v61h6q78 0 108 14q22 16 22 67v348q0 50 -6.5 88.5t-22 71t-45 50t-71.5 17.5q-92 0 -144 -75.5t-52 -204.5v-295q0 -51 22 -67q30 -14 106 -14h7v-61h-432v61h7q77 0 107 14q22 16 22 67v367
q0 208 -146 208z" />
    <glyph glyph-name="n" unicode="n" horiz-adv-x="1042" 
d="M181 618q0 54 -14 69.5t-59 15.5h-62v92h295v-138q111 164 270 164q101 0 171 -59.5t88 -153.5q7 -28 7 -130v-336q0 -49 23 -65t105 -16h7v-61h-432v61h7q84 0 107 16t23 65v344q0 231 -159 231q-49 0 -101 -31t-85 -99q-31 -67 -31 -200v-245q0 -49 23.5 -65t106.5 -16
h7v-61h-432v61h7q82 0 105 16t23 65v476z" />
    <glyph glyph-name="o" unicode="o" horiz-adv-x="853" 
d="M58 396q0 179 106.5 302t265.5 123q154 0 259.5 -123.5t105.5 -299.5q0 -177 -106.5 -300.5t-261.5 -123.5q-103 0 -188 56.5t-133 153t-48 212.5zM616 398q0 106 -18 180t-48 108.5t-59 48t-61 13.5q-193 0 -193 -352q0 -85 13 -150t32 -101.5t45.5 -59t50 -30
t49.5 -7.5t49 7t50 29.5t46 59t31.5 102t12.5 152.5z" />
    <glyph glyph-name="p" unicode="p" horiz-adv-x="979" 
d="M568 -26q-84 0 -135 36t-90 103v-316q0 -48 22 -67q28 -13 108 -13h19v-62h-444v62h7q77 0 105 13q23 18 23 67v821q0 50 -12 70q-17 15 -62 15h-61v92h295v-121q85 147 236 147q147 0 240.5 -121t93.5 -299q0 -183 -96 -305t-249 -122zM734 411q0 64 -9.5 118t-30 100.5
t-58 73t-88.5 26.5q-55 0 -96 -28.5t-64.5 -77.5t-35 -107.5t-11.5 -126.5q0 -148 55.5 -235t146.5 -87q33 0 63 14.5t60.5 49t49 106.5t18.5 174z" />
    <glyph glyph-name="q" unicode="q" horiz-adv-x="948" 
d="M61 379q0 192 105 317t261 125q159 0 259 -142l80 116h63q-27 -135 -27 -145q0 -2 -1 -43t-1 -80v-730q0 -49 23 -67q28 -13 105 -13h7v-62h-443v62h18q80 0 108 13q22 19 22 67v302q-54 -74 -102 -99.5t-130 -25.5q-154 0 -250.5 115.5t-96.5 289.5zM640 416
q0 80 -13.5 141t-33.5 96.5t-47.5 57.5t-52.5 29.5t-51 7.5q-201 0 -201 -359q0 -77 13.5 -136.5t33.5 -93.5t47.5 -55.5t52.5 -29t52 -7.5q200 0 200 349z" />
    <glyph glyph-name="r" unicode="r" horiz-adv-x="757" 
d="M338 142q0 -49 23.5 -65t104.5 -16h32v-61h-455v61h6q78 0 108 14q22 16 22 67v476q0 53 -12 70q-15 15 -61 15h-70v92h302v-211q41 113 109.5 175t146.5 62q68 0 108 -37t40 -100q0 -51 -29 -83.5t-75 -32.5q-42 0 -68 26.5t-26 67.5q0 40 31 77q-63 -8 -111 -60
t-74.5 -130t-39 -159.5t-12.5 -162.5v-85z" />
    <glyph glyph-name="s" unicode="s" horiz-adv-x="790" 
d="M99 573q0 112 67.5 180t181.5 68q122 0 208 -68l50 61h60v-287h-60q-12 35 -25.5 63t-35 58.5t-47 51t-62 33.5t-79.5 13q-69 0 -114 -32.5t-45 -85.5q0 -54 41 -79.5t143 -48.5l86 -19q94 -22 131 -39q120 -59 120 -205q0 -119 -76 -191t-203 -72q-130 0 -233 84
l-60 -70h-60v323h68q29 -119 100 -191t187 -72q75 0 123 37.5t48 98.5q0 54 -44 84t-139 51l-90 21q-128 29 -184.5 80t-56.5 153z" />
    <glyph glyph-name="t" unicode="t" horiz-adv-x="663" 
d="M386 -26q-34 0 -62.5 5.5t-49 14t-37 24t-27.5 30.5t-18.5 39t-11.5 43t-6 49.5t-2.5 52t-0.5 55.5v435h-140v66q104 0 167 91.5t63 253.5h70v-338h251v-73h-251v-466q0 -99 20 -138t81 -39q63 0 98 58.5t35 173.5h72q0 -5 0.5 -18t0.5 -22q0 -132 -64.5 -214.5
t-187.5 -82.5z" />
    <glyph glyph-name="u" unicode="u" horiz-adv-x="1042" 
d="M864 198q0 -80 19.5 -102.5t87.5 -22.5h43v-73h-311v130q-32 -47 -64 -78.5t-84.5 -54.5t-117.5 -23q-160 0 -230 110q-33 46 -33 165v369q0 53 -13 69t-60 16h-65v92h299v-520q0 -73 4 -97t21 -47q33 -52 120 -52q223 0 223 329v210q0 53 -13 69t-60 16h-87v92h321v-597
z" />
    <glyph glyph-name="v" unicode="v" horiz-adv-x="916" 
d="M393 734q-54 0 -73.5 -10t-19.5 -29q0 -14 9 -36l194 -452l157 395q16 45 16 72q0 60 -92 60h-24v61h341v-61h-7q-95 0 -158 -161l-243 -599h-60l-293 686q-18 43 -40 58.5t-73 15.5h-13v61h402v-61h-23z" />
    <glyph glyph-name="w" unicode="w" horiz-adv-x="1327" 
d="M831 734q-40 0 -56 -8.5t-16 -30.5t7 -36l168 -439l145 389q13 36 13 63q0 62 -83 62h-29v61h322v-61h-12q-47 0 -73 -29.5t-53 -100.5l-239 -630h-53l-208 540l-203 -540h-60l-256 676q-18 49 -35 66.5t-54 17.5h-30v61h375v-61h-31q-70 0 -70 -39q0 -17 7 -38l166 -428
l150 397l-15 45q-13 35 -30.5 49t-58.5 14h-29v61h382v-61h-41z" />
    <glyph glyph-name="x" unicode="x" horiz-adv-x="916" 
d="M266 108q0 -21 12.5 -31.5t28 -13t43.5 -2.5h25v-61h-360v61h11q80 0 153 89l196 229l-208 263q-45 56 -70.5 74t-70.5 18v61h404v-61h-24q-75 0 -75 -31q0 -19 17 -37l132 -168l107 128q34 45 34 70q0 38 -77 38h-32v61h353v-61h-15q-66 0 -128 -72l-195 -227l215 -290
q61 -84 149 -84h12v-61h-430v61h12q90 0 90 31q0 19 -22 51l-130 173l-143 -173q-14 -12 -14 -35z" />
    <glyph glyph-name="y" unicode="y" horiz-adv-x="916" 
d="M195 -191q0 -11 -6 -33t-6 -27q0 -17 27 -17q42 0 97 63.5t99 156.5l29 60l-278 630q-19 43 -44 67.5t-72 24.5h-19v61h406v-61h-35q-79 0 -79 -43q0 -13 10 -36l188 -438l155 385q17 40 17 69q0 63 -92 63h-27v61h341v-61h-10q-51 0 -81.5 -32.5t-61.5 -105.5l-195 -482
q-39 -98 -70.5 -165.5t-69 -128t-75 -96t-83.5 -56t-100 -20.5q-69 0 -112 38.5t-43 93.5q0 48 29.5 77t73.5 29q42 0 64.5 -24t22.5 -53z" />
    <glyph glyph-name="z" unicode="z" horiz-adv-x="820" 
d="M384 722q-108 0 -156 -52t-61 -163h-53v288h616v-61l-465 -661h174q122 0 178.5 57.5t56.5 174.5h68v-305h-675v61l465 661h-148z" />
    <glyph glyph-name="braceleft" unicode="{" horiz-adv-x="568" 
d="M242 382q0 25 -29.5 57.5t-99.5 57.5v54q37 12 56 21.5t36 24.5t23.5 38.5t10 56t3.5 86.5v198q0 79 15 131t46.5 78.5t68.5 36.5t91 10h44v-58q-83 0 -110.5 -49.5t-27.5 -165.5v-222q0 -89 -23.5 -129.5t-91.5 -83.5q68 -43 91.5 -84t23.5 -129v-222
q0 -118 27.5 -166.5t110.5 -48.5v-58h-44q-54 0 -91 10t-68.5 36.5t-46.5 78.5t-15 131v310z" />
    <glyph glyph-name="bar" unicode="|" horiz-adv-x="1034" 
d="M584 1232v-1232h-133v1232h133z" />
    <glyph glyph-name="braceright" unicode="}" horiz-adv-x="568" 
d="M328 666q0 -11 4.5 -23t16.5 -28.5t39.5 -33.5t67.5 -30v-54q-47 -16 -68.5 -27t-38.5 -36t-21 -61t-4 -103v-198q0 -139 -47 -197.5t-173 -58.5h-43v58q81 0 109 48t28 167v222q0 90 23 130.5t91 82.5q-67 42 -90.5 83t-23.5 130v222q0 119 -28.5 167t-108.5 48v58h43
q126 0 173 -58.5t47 -197.5v-198q0 -32 2 -69t2 -43z" />
    <glyph glyph-name="asciitilde" unicode="~" horiz-adv-x="1034" 
d="M947 464q-44 -77 -108 -129.5t-131 -52.5q-56 0 -169 53l-78 39q-72 34 -92 41t-45 7q-71 0 -147 -111l-90 64q42 76 107 129.5t132 53.5q51 0 169 -55l78 -37q87 -44 137 -44q74 0 147 107z" />
    <glyph glyph-name="dotnosp" unicode="&#x307;" 
d="M0 1308q-39 0 -65.5 31t-26.5 78t26.5 77.5t65.5 30.5q40 0 66 -31t26 -77q0 -47 -26.5 -78t-65.5 -31z" />
    <glyph glyph-name="dieresisnosp" unicode="&#x308;" 
d="M-212 1310q-40 0 -65.5 31t-25.5 76q0 47 26 76.5t65 29.5t64.5 -30.5t25.5 -75.5q0 -46 -26 -76.5t-64 -30.5zM212 1310q-40 0 -65 31t-25 76q0 47 26 76.5t64 29.5q40 0 65.5 -30.5t25.5 -75.5q0 -46 -26 -76.5t-65 -30.5z" />
    <glyph glyph-name="ringnosp" unicode="&#x30a;" 
d="M0 1229q-72 0 -115 55.5t-43 131.5t43.5 129.5t114.5 53.5q68 0 113 -52t45 -131q0 -75 -45 -131t-113 -56zM0 1533q-47 0 -72.5 -34t-25.5 -83q0 -47 25 -81.5t73 -34.5q47 0 71.5 34.5t24.5 81.5q0 49 -24.5 83t-71.5 34z" />
    <glyph glyph-name="cgj" unicode="&#x34f;" 
 />
    <glyph glyph-name="atnah" unicode="&#x591;" 
d="M-152 -511q0 191 112 219v130l78 -1v-130q62 -14 88 -66.5t26 -143.5l-4 -82h-72q0 5 2 25.5t2 42.5q0 67 -17 105.5t-63 38.5q-80 0 -80 -138q0 -37 4 -74h-72z" />
    <glyph glyph-name="segolta" unicode="&#x592;" 
d="M-118 1222q-31 0 -50.5 23.5t-19.5 58.5q0 36 20 59t50 23q31 0 50.5 -23.5t19.5 -58.5q0 -36 -20 -59t-50 -23zM0 1466q-31 0 -50.5 23.5t-19.5 58.5q0 36 20 59t50 23q31 0 50.5 -23.5t19.5 -58.5q0 -36 -20 -59t-50 -23zM118 1222q-31 0 -50.5 23.5t-19.5 58.5
q0 36 20 59t50 23q31 0 50.5 -23.5t19.5 -58.5q0 -36 -20 -59t-50 -23z" />
    <glyph glyph-name="shalshelet" unicode="&#x593;" 
d="M110 1475l-134 -87l138 -87l-140 -94h-84l140 94l-140 87l134 87l-138 87l140 94h84l-138 -94z" />
    <glyph glyph-name="zaqefqatan" unicode="&#x594;" 
d="M0 1222q-31 0 -50.5 23.5t-19.5 58.5q0 36 20 59t50 23q31 0 50.5 -23.5t19.5 -58.5q0 -36 -20 -59t-50 -23zM0 1476q-31 0 -50.5 23.5t-19.5 58.5q0 36 20 59t50 23q31 0 50.5 -23.5t19.5 -58.5q0 -36 -20 -59t-50 -23z" />
    <glyph glyph-name="zaqefgadol" unicode="&#x595;" 
d="M70 1222q-31 0 -50.5 23.5t-19.5 58.5q0 36 20.5 59t49.5 23q31 0 50.5 -23.5t19.5 -58.5q0 -36 -20 -59t-50 -23zM70 1476q-31 0 -50.5 23.5t-19.5 58.5q0 36 20.5 59t49.5 23q31 0 50.5 -23.5t19.5 -58.5q0 -36 -20 -59t-50 -23zM-68 1237h-72v398h72v-398z" />
    <glyph glyph-name="tipeha" unicode="&#x596;" 
d="M-12 -353q0 -63 24.5 -96t75.5 -51v-87q-176 42 -176 237q0 71 12 173h76q-12 -151 -12 -176z" />
    <glyph glyph-name="revia" unicode="&#x597;" 
d="M-4 1501l108 -148l-100 -140l-108 143z" />
    <glyph glyph-name="zarqa" unicode="&#x598;" 
d="M154 1394q0 43 -42 63v89q42 -14 77.5 -54.5t35.5 -96.5q0 -65 -36 -105.5t-84 -40.5q-26 0 -47.5 10t-38 29.5t-25.5 34.5t-21 39l-15 30q-28 55 -60 55q-22 0 -37 -18.5t-15 -47.5q0 -45 46 -64v-85q-53 18 -85 58.5t-32 89.5q0 64 35.5 104.5t85.5 40.5q44 0 74 -28
t58 -84l16 -31q16 -27 29 -40t29 -13q22 0 37 18.5t15 46.5z" />
    <glyph glyph-name="pashta" unicode="&#x599;" 
d="M12 1408q0 63 -24.5 96t-75.5 51v87q176 -42 176 -237q0 -71 -12 -173h-76q12 151 12 176z" />
    <glyph glyph-name="yetiv" unicode="&#x59a;" 
d="M138 -515l-50 -72l-226 208l226 208l50 -72l-162 -133z" />
    <glyph glyph-name="tevir" unicode="&#x59b;" 
d="M66 -353l-12 176h76q10 -85 10 -173q0 -194 -174 -237v87q51 18 75.5 51t24.5 96zM-74 -411q-29 0 -47.5 22.5t-18.5 54.5t19 54.5t47 22.5t47 -23t19 -54q0 -33 -19.5 -55t-46.5 -22z" />
    <glyph glyph-name="gereshaccent" unicode="&#x59c;" 
d="M-12 1409l12 -173h-78q-10 90 -10 170q0 195 176 237v-87q-51 -18 -75.5 -51t-24.5 -96z" />
    <glyph glyph-name="gereshmuqdam" unicode="&#x59d;" 
d="M-12 1407l12 -172h-78q-10 85 -10 169q0 195 176 237v-87q-51 -18 -75.5 -51t-24.5 -96z" />
    <glyph glyph-name="gershayimaccent" unicode="&#x59e;" 
d="M-110 1407l9 -170h-76q-8 68 -8 167q0 195 175 237v-87q-52 -18 -76 -50.5t-24 -96.5zM85 1408l10 -171h-77q0 1 -4 64t-4 103q0 194 175 238v-88q-51 -18 -75.5 -50.5t-24.5 -95.5z" />
    <glyph glyph-name="qarneypara" unicode="&#x59f;" 
d="M388 1503q0 -79 -46 -135.5t-118 -56.5q-55 0 -94 36l-130 -148l-130 148q-39 -36 -94 -36q-72 0 -118 56.5t-46 135.5q0 78 46 135.5t118 57.5t118 -56t46 -137q0 -61 -30 -108l90 -100l90 100q-30 46 -30 108q0 81 46 137t118 56t118 -57.5t46 -135.5zM-224 1379
q46 0 74 36.5t28 87.5t-28 87.5t-74 36.5t-74 -36.5t-28 -87.5t28 -87.5t74 -36.5zM224 1627q-46 0 -74 -36.5t-28 -87.5t28 -87.5t74 -36.5t74 36.5t28 87.5t-28 87.5t-74 36.5z" />
    <glyph glyph-name="telishagedola" unicode="&#x5a0;" 
d="M8 1627q-46 0 -74 -36.5t-28 -87.5t28 -87.5t74 -36.5t74 36.5t28 87.5t-28 87.5t-74 36.5zM-98 1358q-58 64 -58 145t46 137t118 56t118 -57.5t46 -135.5q0 -79 -46 -135.5t-118 -56.5q-20 0 -56 13l-66 -146l-58 39z" />
    <glyph glyph-name="pazer" unicode="&#x5a1;" 
d="M126 1551q0 -93 -32 -152t-102 -59q-19 0 -46 6v-109h-72v398h72v-213q13 -4 32 -4q76 0 76 132q0 29 -6 83h74q4 -50 4 -82z" />
    <glyph glyph-name="atnahhafukh" unicode="&#x5a2;" 
d="M152 -248q0 -190 -116 -217v-130h-72v130q-62 14 -89 66.5t-27 142.5l4 82h72q0 -5 -2 -25.5t-2 -42.5q0 -67 17 -105.5t63 -38.5q80 0 80 138q0 37 -4 74h72z" />
    <glyph glyph-name="munah" unicode="&#x5a3;" 
d="M121 -572h-242v85h169v304h73v-389z" />
    <glyph glyph-name="mahapakh" unicode="&#x5a4;" 
d="M138 -515l-50 -72l-226 208l226 208l50 -72l-162 -133z" />
    <glyph glyph-name="merkha" unicode="&#x5a5;" 
d="M12 -350l-12 176h76q11 -99 11 -174q0 -195 -174 -236v86q51 19 75 51.5t24 96.5z" />
    <glyph glyph-name="merkhakefula" unicode="&#x5a6;" 
d="M-86 -353l-10 176h74q10 -90 10 -174q0 -196 -172 -236v86q50 19 74 51.5t24 96.5zM110 -354l-10 176h74q10 -90 10 -174q0 -195 -172 -235v85q50 19 74 51.5t24 96.5z" />
    <glyph glyph-name="darga" unicode="&#x5a7;" 
d="M58 -247q-31 -6 -47 -11.5t-30.5 -20t-14.5 -37.5q0 -3 31.5 -13t65 -28.5t38.5 -42.5q3 -14 3 -32q0 -78 -44 -111t-153 -50v81q16 4 43.5 9t37.5 8t23.5 10t18 18.5t4.5 29.5q0 4 -31.5 13.5t-65 28t-38.5 42.5q-3 13 -3 32q0 80 42 111.5t144 47.5v-82
q-3 -1 -8.5 -1.5t-8.5 -1.5h-7z" />
    <glyph glyph-name="qadma" unicode="&#x5a8;" 
d="M12 1406q0 63 -24.5 96t-75.5 51v87q176 -42 176 -237q0 -86 -10 -171h-78q12 149 12 174z" />
    <glyph glyph-name="telishaqetana" unicode="&#x5a9;" 
d="M-8 1379q46 0 74 36.5t28 87.5t-28 87.5t-74 36.5t-74 -36.5t-28 -87.5t28 -87.5t74 -36.5zM-8 1696q72 0 118 -56t46 -137q0 -82 -58 -145l74 -141l-58 -39l-66 146q-36 -13 -56 -13q-72 0 -118 56.5t-46 135.5q0 78 46 135.5t118 57.5z" />
    <glyph glyph-name="yerahbenyomo" unicode="&#x5aa;" 
d="M152 -249q0 -191 -114 -217v-130h-76v131q-62 14 -88 65.5t-26 142.5l4 82h72q0 -5 -2 -25.5t-2 -42.5q0 -67 17 -105.5t63 -38.5q80 0 80 138q0 37 -4 74h72z" />
    <glyph glyph-name="ole" unicode="&#x5ab;" 
d="M138 1295l-50 -72l-226 208l226 208l50 -72l-162 -133z" />
    <glyph glyph-name="iluy" unicode="&#x5ac;" 
d="M125 1203h-250v85h178v304h72v-389z" />
    <glyph glyph-name="dehi" unicode="&#x5ad;" 
d="M-12 -356q0 -63 24.5 -96t75.5 -51v-87q-176 42 -176 237q0 71 12 173h76q-12 -151 -12 -176z" />
    <glyph glyph-name="tsinor" unicode="&#x5ae;" 
d="M154 1392q0 43 -42 63v89q42 -14 77.5 -54.5t35.5 -96.5q0 -65 -36 -105.5t-84 -40.5q-26 0 -47.5 10t-38 29.5t-25.5 34.5t-21 39l-16 30q-27 55 -59 55q-22 0 -37 -18.5t-15 -47.5q0 -45 46 -64v-87q-53 18 -85 59.5t-32 90.5q0 64 35.5 104.5t85.5 40.5q44 0 74 -28
t58 -84l16 -31q16 -27 29 -40t29 -13q22 0 37 18.5t15 46.5z" />
    <glyph glyph-name="masoracircle" unicode="&#x5af;" 
d="M0 1306q-69 0 -117.5 57t-48.5 138q0 78 48 136.5t118 58.5q68 0 117 -56.5t49 -138.5q0 -81 -48.5 -138t-117.5 -57zM0 1643q-48 0 -82 -40.5t-34 -101.5q0 -60 34.5 -101t81.5 -41t81.5 40t34.5 102t-34.5 102t-81.5 40z" />
    <glyph glyph-name="sheva" unicode="&#x5b0;" 
d="M0 -587q-31 0 -50.5 23.5t-19.5 58.5q0 36 20 59t50 23q31 0 50.5 -23.5t19.5 -58.5q0 -36 -20 -59t-50 -23zM0 -333q-31 0 -50.5 23.5t-19.5 58.5q0 36 20 59t50 23q31 0 50.5 -23.5t19.5 -58.5q0 -36 -20 -59t-50 -23z" />
    <glyph glyph-name="hatafsegol" unicode="&#x5b1;" 
d="M234 -587q-31 0 -50.5 23.5t-19.5 58.5q0 36 20.5 59t49.5 23q31 0 50.5 -23.5t19.5 -58.5q0 -36 -20 -59t-50 -23zM234 -333q-31 0 -50.5 23.5t-19.5 58.5q0 36 20.5 59t49.5 23q31 0 50.5 -23.5t19.5 -58.5q0 -36 -20 -59t-50 -23zM0 -169q31 0 51.5 -23.5t20.5 -58.5
q0 -36 -20.5 -59t-51.5 -23t-49.5 23.5t-18.5 58.5q0 36 19.5 59t48.5 23zM-116 -423q31 0 50.5 -23.5t19.5 -58.5q0 -36 -20 -59t-50 -23q-31 0 -50.5 23.5t-19.5 58.5q0 36 20 59t50 23zM-234 -169q31 0 50.5 -23.5t19.5 -58.5q0 -36 -20.5 -59t-49.5 -23
q-31 0 -50.5 23.5t-19.5 58.5q0 36 20 59t50 23z" />
    <glyph glyph-name="hatafpatah" unicode="&#x5b2;" 
d="M31 -288h-298v94h298v-94zM197 -587q-30 0 -49.5 23.5t-19.5 58.5q0 36 19.5 59t49.5 23q31 0 50.5 -23.5t19.5 -58.5q0 -36 -20 -59t-50 -23zM197 -333q-30 0 -49.5 23.5t-19.5 58.5q0 36 19.5 59t49.5 23q31 0 50.5 -23.5t19.5 -58.5q0 -36 -20 -59t-50 -23z" />
    <glyph glyph-name="hatafqamats" unicode="&#x5b3;" 
d="M-140 -288h-126v94h296v-94h-128v-34v-2q0 -52 14 -86l36 -90q-23 -57 -50 -84q-24 -6 -42 0q-30 25 -48 84l36 90q12 27 12 84v4v34zM196 -587q-30 0 -49 23.5t-19 58.5q0 36 19.5 59t48.5 23q31 0 50.5 -23.5t19.5 -58.5q0 -36 -20 -59t-50 -23zM196 -333
q-30 0 -49 23.5t-19 58.5q0 36 19.5 59t48.5 23q31 0 50.5 -23.5t19.5 -58.5q0 -36 -20 -59t-50 -23z" />
    <glyph glyph-name="hiriq" unicode="&#x5b4;" 
d="M0 -333q-31 0 -50.5 23.5t-19.5 58.5q0 36 20 59t50 23q31 0 50.5 -23.5t19.5 -58.5q0 -36 -20 -59t-50 -23z" />
    <glyph glyph-name="tsere" unicode="&#x5b5;" 
d="M178 -251q0 -36 -20 -59t-50 -23q-31 0 -50.5 23.5t-19.5 58.5q0 36 20 59t50 23q31 0 50.5 -23.5t19.5 -58.5zM-38 -251q0 -36 -20 -59t-50 -23q-31 0 -50.5 23.5t-19.5 58.5q0 36 20 59t50 23q31 0 50.5 -23.5t19.5 -58.5z" />
    <glyph glyph-name="segol" unicode="&#x5b6;" 
d="M118 -169q31 0 50.5 -23.5t19.5 -58.5q0 -36 -20 -59t-50 -23q-31 0 -50.5 23.5t-19.5 58.5q0 36 20 59t50 23zM0 -413q31 0 50.5 -23.5t19.5 -58.5q0 -36 -20 -59t-50 -23q-31 0 -50.5 23.5t-19.5 58.5q0 36 20 59t50 23zM-118 -169q31 0 50.5 -23.5t19.5 -58.5
q0 -36 -20 -59t-50 -23q-31 0 -50.5 23.5t-19.5 58.5q0 36 20 59t50 23z" />
    <glyph glyph-name="patah" unicode="&#x5b7;" 
d="M150 -288h-300v94h300v-94z" />
    <glyph glyph-name="qamats" unicode="&#x5b8;" 
d="M-22 -288h-126v94h296v-94h-128v-34v-3q0 -43 14 -85l36 -90q-23 -58 -50 -85q-22 -5 -42 1q-30 25 -48 84l36 90q12 26 12 84v3v35z" />
    <glyph glyph-name="holam" unicode="&#x5b9;" 
d="M-230 1222q-31 0 -50.5 23.5t-19.5 58.5q0 36 20 59t50 23q31 0 50.5 -23.5t19.5 -58.5q0 -36 -20 -59t-50 -23z" />
    <glyph glyph-name="holamhaser" unicode="&#x5ba;" 
d="M-230 1222q-31 0 -50.5 23.5t-19.5 58.5q0 36 20 59t50 23q31 0 50.5 -23.5t19.5 -58.5q0 -36 -20 -59t-50 -23z" />
    <glyph glyph-name="qubuts" unicode="&#x5bb;" 
d="M-154 -323q-29 0 -48.5 23t-19.5 56q0 34 19 57t49 23t49 -23t19 -57t-20 -56.5t-48 -22.5zM154 -591q-29 0 -48.5 23t-19.5 56q0 34 19 57t49 23t49 -23t19 -57q0 -35 -19.5 -57t-48.5 -22zM-4 -453q-29 0 -47.5 23t-18.5 56q0 34 18.5 57t47.5 23q30 0 49 -23t19 -57
q0 -35 -19.5 -57t-48.5 -22z" />
    <glyph glyph-name="dagesh" unicode="&#x5bc;" 
d="M0 437q-31 0 -50.5 23.5t-19.5 58.5q0 36 20 59t50 23q31 0 50.5 -23.5t19.5 -58.5q0 -36 -20 -59t-50 -23z" />
    <glyph glyph-name="meteg" unicode="&#x5bd;" 
d="M36 -572h-72v390h72v-390z" />
    <glyph glyph-name="makaf" unicode="&#x5be;" horiz-adv-x="631" 
d="M78 830q-4 0 -4 7q0 11 24 105l27 104q3 7 8 7h429q5 0 5 -7l-28 -104q-10 -41 -20 -83q-6 -29 -12 -29h-429z" />
    <glyph glyph-name="rafe" unicode="&#x5bf;" 
d="M194 1224h-388v94h388v-94z" />
    <glyph glyph-name="paseq" unicode="&#x5c0;" horiz-adv-x="600" 
d="M342 -164h-84v1393h84v-1393z" />
    <glyph glyph-name="shindot" unicode="&#x5c1;" 
d="M0 1222q-31 0 -50.5 23.5t-19.5 58.5q0 36 20 59t50 23q31 0 50.5 -23.5t19.5 -58.5q0 -36 -20 -59t-50 -23z" />
    <glyph glyph-name="sindot" unicode="&#x5c2;" 
d="M0 1222q-31 0 -50.5 23.5t-19.5 58.5q0 36 20 59t50 23q31 0 50.5 -23.5t19.5 -58.5q0 -36 -20 -59t-50 -23z" />
    <glyph glyph-name="sofpasuq" unicode="&#x5c3;" horiz-adv-x="490" 
d="M197 973q43 -46 81.5 -75t52.5 -37.5t14 -16.5q0 -9 -2 -12l-50 -81l-46 -83q-3 -5 -9 -5q-21 0 -74.5 43t-83.5 77q-6 8 0 19q60 111 98 168q7 12 19 3zM197 292q28 -30 54 -53t42 -34t28 -19t17.5 -12.5t6.5 -9.5q1 -8 -2 -13l-50 -81l-46 -83q-3 -5 -9 -5
q-21 0 -74.5 43t-83.5 77q-6 8 0 19q60 111 98 168q7 12 19 3z" />
    <glyph glyph-name="upperdot" unicode="&#x5c4;" 
d="M133 1622l-132 -157l-134 161l130 162z" />
    <glyph glyph-name="lowerdot" unicode="&#x5c5;" 
d="M133 -738l-132 -157l-134 161l130 162z" />
    <glyph glyph-name="nunhapukha" unicode="&#x5c6;" horiz-adv-x="637" 
d="M218 556q0 41 -12.5 101.5t-12.5 93.5q0 35 8 68q-44 6 -65 42t-21 87q0 63 42 184h43q19 -48 54 -64.5t87 -16.5q17 0 51 2t50 2q34 0 61 -7l-59 -234q-35 5 -60 5q-116 0 -116 -89q0 -51 11.5 -160.5t11.5 -162.5q0 -26 -1 -38l-22 -128l240 -1l66 -240h-407
q-11 44 -11 127q0 44 31 185.5t31 243.5z" />
    <glyph glyph-name="qamatsqatan" unicode="&#x5c7;" 
d="M-23 -278h-125v94h296v-94h-124v-42v-4q0 -107 11 -136l36 -90q-21 -57 -50 -86q-26 -4 -44 2q-28 24 -45 84l35 90q10 20 10 134v4v44z" />
    <glyph glyph-name="alef" unicode="&#x5d0;" horiz-adv-x="1048" 
d="M875 1039q106 -38 106 -137q0 -82 -66 -167h-19v25v12q0 18 -6.5 26.5t-29.5 8.5q-52 -81 -73 -136.5t-21 -107.5q0 -76 53 -138l93 -107q78 -88 78 -184q0 -87 -70 -151h-27q0 70 -52 129l-434 498q-111 -56 -111 -144q0 -34 19 -69t46.5 -65.5l55 -61t46.5 -66.5
t19 -70q0 -47 -33.5 -90.5t-69.5 -43.5h-3h-189v28q60 16 60 69q0 27 -43.5 130.5t-43.5 150.5q0 155 209 274l-122 139q-76 88 -76 183q0 88 68 162h26q0 -81 52 -140l376 -427q26 132 101 245q-149 24 -149 184q0 79 41 138h26q17 -62 77 -77z" />
    <glyph glyph-name="bet" unicode="&#x5d1;" horiz-adv-x="967" 
d="M561 814h-227q-72 0 -111.5 43t-39.5 109q0 94 61 164h26q17 -74 100 -74h146q80 0 135 -7t94.5 -26.5t62 -44t35 -69.5t16.5 -92.5t4 -123.5v-141q0 -117 -13.5 -183.5t-51.5 -128.5h146q0 -141 -38 -240h-769q-5 25 -5 46q0 39 11.5 95.5t32.5 98.5h568q25 128 25 285
q0 182 -31 247q-14 28 -54 35t-123 7z" />
    <glyph glyph-name="gimel" unicode="&#x5d2;" horiz-adv-x="665" 
d="M468 599q0 -54 27 -120.5t59.5 -119.5t59.5 -122t27 -127q0 -73 -37 -128h-24l-144 344h-14l-134 -326l-212 -18l52 242q14 2 49.5 7.5t48.5 8.5t36 10t38.5 18t29.5 28q72 82 72 302q0 56 -4.5 93.5t-9 58t-18.5 32.5t-22.5 15t-30.5 8l-39 9q-69 16 -90 50t-22 99
q0 87 63 160h27q2 -10 2.5 -23t1 -19t3.5 -12.5t12 -10t24 -4.5l73 -7q112 -10 112 -142q0 -39 -8 -153t-8 -153z" />
    <glyph glyph-name="dalet" unicode="&#x5d3;" horiz-adv-x="879" 
d="M671 596q0 -56 11 -210.5t11 -210.5q0 -176 -145 -200l-17 25q26 40 26 101q0 69 -4.5 173.5t-4.5 148.5q0 143 34.5 234t119.5 157h-448q-75 0 -114.5 41t-39.5 107q0 99 61 164h26q17 -70 100 -70h414q70 0 96.5 -26t26.5 -93q0 -37 -6 -59.5t-17.5 -36.5t-25 -24.5
t-33 -31.5t-36.5 -49q-35 -55 -35 -140z" />
    <glyph glyph-name="he" unicode="&#x5d4;" horiz-adv-x="1071" 
d="M922 607q0 -67 23 -216t23 -216q0 -177 -143 -200l-16 21q26 46 26 105q0 44 -8 178.5t-8 176.5q0 128 20.5 210t76.5 148h-570q-73 0 -111.5 41t-38.5 107q0 99 61 164h27q17 -70 94 -70h488q77 0 103 -28t26 -91v-49q0 -26 -11.5 -50.5t-25 -44.5t-25 -68.5
t-11.5 -117.5zM361 293q0 -19 4 -97t4 -98q0 -122 -150 -131l-14 22q26 28 26 73q0 19 -3 94t-3 94q0 108 40 177t113 69q20 0 34 -8v-27q-23 -15 -37 -65t-14 -103z" />
    <glyph glyph-name="vav" unicode="&#x5d5;" horiz-adv-x="484" 
d="M266 1056q76 0 115 -53.5t39 -178.5v-717q0 -89 -68 -124l-22 7v673q0 70 -22 107q-12 19 -24 27t-46 17q-82 21 -116.5 45.5t-45.5 84.5q-2 9 -2 26q0 36 17 77t42 65q6 -2 27 0q7 -56 106 -56z" />
    <glyph glyph-name="zain" unicode="&#x5d6;" horiz-adv-x="549" 
d="M461 736h-17q-5 26 -37.5 45.5t-66.5 26.5q-18 -86 -18 -154q0 -82 31 -236t31 -225q0 -196 -142 -218l-19 20q32 46 32 110q0 49 -16 183t-16 184q0 178 74 336q-101 0 -152 44.5t-51 118.5q0 94 55 164h27q12 -57 66 -69q151 -5 232 -58q42 -27 42 -113q0 -88 -55 -159
z" />
    <glyph glyph-name="het" unicode="&#x5d7;" horiz-adv-x="1065" 
d="M913 607q0 -57 23.5 -211t23.5 -221q0 -179 -140 -200l-16 21q26 40 26 105q0 44 -8 178.5t-8 176.5q0 130 19.5 211t74.5 147h-506q-46 -34 -61 -80.5t-15 -136.5q0 -63 20 -202.5t20 -203.5q0 -195 -149 -216l-13 21q31 49 31 144l1 16q0 17 -1 17l-15 253v17.5v20.5
v17q0 112 28 190.5t96 142.5q-91 1 -122 36.5t-31 111.5q0 99 61 164h27q17 -70 99 -70h483q71 0 100 -24.5t29 -90.5v-4q0 -51 -12 -89t-26.5 -59.5t-26.5 -68t-12 -113.5z" />
    <glyph glyph-name="tet" unicode="&#x5d8;" horiz-adv-x="1015" 
d="M262 814q-70 13 -99 49t-29 106q0 81 42 166h27q7 -73 108 -78q119 -3 119 -128q0 -22 -8.5 -81.5t-15.5 -80.5q-13 -5 -15 -0.5t-9.5 18t-19.5 18.5q-4 1 -22 6t-30 5q-33 -108 -33 -182q0 -92 24 -178.5t79 -213.5h414q41 87 56 174t15 215q0 101 -45 143t-112 42
q-144 0 -193 -159l-32 8q84 405 272 405q187 0 187 -438q0 -270 -128 -630h-530q-1 68 -36.5 269.5t-35.5 295.5q0 120 50 249z" />
    <glyph glyph-name="yod" unicode="&#x5d9;" horiz-adv-x="454" 
d="M247 480l-28 32q53 40 73 81.5t20 111.5v36q0 38 -15.5 54.5t-71.5 18.5q-80 3 -119.5 48t-39.5 116q0 72 47 157h27q9 -67 91 -75l35 -4q134 -11 134 -185v-76q0 -235 -153 -315z" />
    <glyph glyph-name="finalkaf" unicode="&#x5da;" horiz-adv-x="846" 
d="M737 800q-17 -20 -17 -71v-9l32 -897q0 -5 0.5 -13t0.5 -12q0 -64 -21.5 -98t-74.5 -54l-18 9l-3 1160h-387q-69 0 -105 41t-36 107q0 94 61 164h26q15 -70 107 -70l361 -1q127 0 127 -110v-31q0 -43 -21 -67z" />
    <glyph glyph-name="kaf" unicode="&#x5db;" horiz-adv-x="942" 
d="M774 507v10q0 79 -8 129.5t-29.5 91t-63 58.5t-106.5 18h-275q-68 0 -102 40.5t-34 107.5q0 94 61 164h26q16 -70 100 -70h206q317 0 317 -519q0 -124 -12 -211.5t-35.5 -140t-49.5 -81.5t-64 -50q-95 -54 -251 -54h-329l45 240h379q121 0 173 60t52 207z" />
    <glyph glyph-name="lamed" unicode="&#x5dc;" horiz-adv-x="901" 
d="M227 1137q0 -48 27.5 -64.5t90.5 -16.5h326q92 0 143 -45q49 -46 49 -220v-108q0 -131 -58 -195l-190 -213q-69 -77 -69 -151q0 -15 3.5 -38.5t3.5 -33.5q0 -74 -67 -74q-33 0 -55.5 32t-22.5 74q0 54 36.5 106.5t122.5 139.5l146 151q62 65 62 166v60q0 72 -33.5 89.5
t-150.5 17.5h-290q-76 0 -116.5 44.5t-40.5 116.5q0 91 37 202l29 85q7 21 7 34q0 29 -36 47l-56 27q-43 21 -43 59q0 24 15.5 71t32.5 72h25q4 -31 42 -46l38 -15q63 -25 63 -77q0 -7 -43 -168l-14 -51q-14 -54 -14 -78z" />
    <glyph glyph-name="finalmem" unicode="&#x5dd;" horiz-adv-x="1004" 
d="M172 0v537q0 81 61 149l115 128h-52q-70 0 -107 40.5t-37 107.5q0 95 61 162h26q16 -68 95 -68h221q231 0 299 -67q68 -68 68 -291v-698h-750zM416 814l-110 -158q-44 -63 -44 -155l1 -261h573v234q-1 207 -38 285q-18 35 -56.5 44.5t-116.5 10.5h-209z" />
    <glyph glyph-name="mem" unicode="&#x5de;" horiz-adv-x="1094" 
d="M681 1069q89 -15 154.5 -69t101.5 -136t53 -174.5t17 -199.5q0 -138 -37 -319l-34 -171h-499l58 240h408q13 50 16 94t3 134v3q0 138 -62.5 224t-163.5 88h-7q-173 0 -289 -173q-135 -201 -136 -610h-67q-4 45 -4 87q0 211 50 363.5t165 278.5q5 30 5 42q0 11 -2.5 17
t-11 9.5t-17 5t-28 4.5t-36.5 7q-60 13 -96 61t-36 104q0 83 42 156h27q18 -61 77 -70l62 -9q84 -12 84 -85q0 -18 -4.5 -45.5t-4.5 -39.5q0 -42 31 -61q166 93 181 244z" />
    <glyph glyph-name="finalnun" unicode="&#x5df;" horiz-adv-x="459" 
d="M243 542q1 46 18.5 88t34.5 75t17 57v6q0 26 -10 36t-51 11q-92 1 -127 44t-35 118q0 93 54 160h27q1 -4 2.5 -14t2 -13t2 -11t3 -10.5t4 -8.5t5.5 -8t7 -6t9 -5.5t11.5 -3t14.5 -1.5h24q153 -9 153 -164q0 -28 -18.5 -80.5t-37 -127.5t-18.5 -160q0 -25 1 -39l32 -573
q1 -14 1 -39q0 -185 -107 -225l-19 7v887z" />
    <glyph glyph-name="nun" unicode="&#x5e0;" horiz-adv-x="614" 
d="M487 559q0 -102 31 -243.5t31 -185.5q0 -90 -10 -130h-470l37 239l303 1l-3 132v26q0 52 9.5 163.5t9.5 161.5v7q-2 39 -17 59.5t-57 21.5q-157 2 -160 169v4q0 95 61 156h27q4 -23 6 -31t8.5 -21.5t18.5 -19t31 -6.5l44 -5q136 -15 136 -138q0 -49 -18 -180t-18 -180z
" />
    <glyph glyph-name="samekh" unicode="&#x5e1;" horiz-adv-x="1038" 
d="M962 537q0 -131 -16.5 -227.5t-55.5 -174t-111.5 -117.5t-177.5 -40h-37q-90 0 -165 39t-122.5 103.5t-74 146t-26.5 169.5q0 122 27 208.5t85 172.5q-50 0 -81 50.5t-31 94.5q0 93 63 164h26q17 -70 99 -70h244q84 0 146 -24.5t110.5 -81.5t73 -160.5t24.5 -252.5z
M872 502q0 86 -9.5 141t-35.5 95.5t-72.5 58t-120.5 17.5h-287q-42 -71 -59.5 -140t-17.5 -157q0 -158 75 -235.5t193 -77.5h88q124 0 185 72t61 226z" />
    <glyph glyph-name="ayin" unicode="&#x5e2;" horiz-adv-x="920" 
d="M693 282q0 -242 -278 -275l-345 -40l44 235l254 28q0 164 -76 226q-52 43 -65 77.5t-13 111.5q0 59 19 169q-76 14 -115.5 54.5t-39.5 98.5q0 85 40 164h27q18 -72 86 -79h47q48 0 80.5 -42t32.5 -102q0 -75 -52 -141h-17q-6 29 -15.5 38t-32.5 9q0 -111 9 -141t51 -58
q40 -26 56 -42.5t25 -47t9 -87.5v-198l62 8q9 1 24 3t20.5 3t16 3.5t13.5 5.5l10 10t10 15t8 21.5t9 30t9 39.5q21 91 75 215.5t54 151.5q0 58 -51 68q-69 16 -101.5 59.5t-32.5 101.5q0 74 49 156h27q9 -41 34 -58q19 -12 58 -20.5t69.5 -14t54.5 -31t24 -70.5
q0 -39 -18 -88t-43 -103t-50.5 -118t-43.5 -155t-18 -191z" />
    <glyph glyph-name="finalpe" unicode="&#x5e3;" horiz-adv-x="886" 
d="M408 390q-12 0 -40.5 4.5t-47.5 4.5q-72 0 -114 -53h-33q-32 66 -32 129q0 174 121 339q-43 9 -67.5 50.5t-24.5 97.5q0 95 63 164h26q18 -70 98 -70h151h28q191 0 239 -103q29 -59 36 -228l20 -450q12 -280 12 -476q0 -76 -19 -102.5t-72 -46.5l-23 8v837
q0 87 -7.5 147.5t-19 94t-33 51t-41.5 22t-52 4.5h-267q-26 -42 -35.5 -57.5t-18 -39.5t-8.5 -46q0 -44 21.5 -61.5t86.5 -30.5q87 -15 87 -83v-68q0 -38 -34 -38z" />
    <glyph glyph-name="pe" unicode="&#x5e4;" horiz-adv-x="912" 
d="M382 459q-9 0 -44 4t-44 4q-73 0 -114 -53h-32q-38 86 -38 163q0 81 20 134t74 103l-40 45q-11 12 -18.5 43t-7.5 60q0 96 61 164h26q16 -70 100 -70h190q313 0 313 -519q0 -337 -100 -437t-308 -100h-310l58 240h330q49 0 82.5 4t69 19.5t56.5 43t35 77t14 119.5
q0 83 -10 140.5t-26.5 90.5t-45.5 51t-57.5 23.5t-72.5 5.5h-262q-65 -41 -65 -106q0 -30 19.5 -44.5t48 -19t56.5 -9t47.5 -21t19.5 -48.5v-55q0 -52 -25 -52z" />
    <glyph glyph-name="finaltsadi" unicode="&#x5e5;" horiz-adv-x="990" 
d="M887 754h-17q-6 28 -17 36t-40 8q-87 -67 -138 -120l-89 -91q-113 -116 -152 -203t-39 -173q0 -54 14.5 -183t14.5 -190q0 -155 -101 -194l-23 8l-21 823v4q0 43 30 136.5t30 131.5q0 42 -42 59q-101 19 -148.5 57t-47.5 110q0 86 46 160h27q16 -63 80 -70l64 -7
q141 -14 141 -140q0 -56 -58 -197q-43 -107 -43 -164v-10l4 -83h16q183 213 371 348q-143 23 -143 163q0 84 46 160h26q8 -63 84 -70l63 -7q47 -11 54.5 -14t29.5 -19q38 -28 38 -99q0 -94 -60 -170z" />
    <glyph glyph-name="tsadi" unicode="&#x5e6;" horiz-adv-x="968" 
d="M273 814q-74 0 -110.5 43.5t-36.5 113.5q0 93 44 164h27q16 -72 82 -77l35 -2q71 -5 96 -33t25 -103q0 -24 -8 -96t-8 -96q0 -80 56 -127l95 -79q65 175 146 284q-110 25 -110 165q0 83 42 164h28q9 -70 88 -77l55 -4q49 -4 76 -45.5t27 -102.5q0 -93 -57 -165h-17
q-4 18 -5.5 24t-7 16.5t-14.5 14t-23 3.5q-10 0 -15 -1q-49 -46 -82 -121t-34 -142q0 -92 87 -164l133 -110l-57 -261h-625l42 240h452l-281 228q-62 50 -62 112v3l5 144v7q0 44 -20 62t-68 18z" />
    <glyph glyph-name="kof" unicode="&#x5e7;" horiz-adv-x="997" 
d="M692 1056q135 0 189.5 -65.5t54.5 -210.5v-97q0 -111 -23.5 -169t-82.5 -98l-220 -146q-78 -51 -78 -152q0 -5 1.5 -30t1.5 -41q0 -69 -69 -69q-33 0 -65 27t-32 64q0 77 54 139.5t155 129.5l191 128q78 52 78 157v72q0 72 -33.5 95.5t-132.5 23.5h-372q-70 0 -106.5 41
t-36.5 107q0 94 61 164h26q15 -70 100 -70h339zM225 -345l-21 6v860q0 87 72 150l36 6v-944q0 -26 -87 -78z" />
    <glyph glyph-name="resh" unicode="&#x5e8;" horiz-adv-x="883" 
d="M757 -19l-21 7v486q0 164 -17 222t-77 91q-48 27 -126 27h-275q-69 0 -106 41t-37 107q0 94 61 164h26q17 -70 100 -70h175q231 0 298 -67q69 -66 69 -291v-618q0 -62 -70 -99z" />
    <glyph glyph-name="shin" unicode="&#x5e9;" horiz-adv-x="1292" 
d="M897 0h-559q-21 110 -51 227.5t-45 190t-15 143.5q0 139 35 243q-59 18 -89 63t-30 99q0 93 50 169h27q9 -34 30.5 -51t88.5 -30q44 -8 70.5 -50.5t26.5 -99.5q0 -83 -54 -150h-17q-6 28 -17 36t-39 8q-17 -78 -17 -204q0 -81 24 -160t83 -194l50 1q70 129 122 260.5
t102 315.5q-59 22 -88.5 66t-29.5 97q0 86 51 155h27q12 -56 56 -67l63 -14q58 -17 79 -48t21 -80v-6q0 -76 -66 -160h-17q-2 8 -3.5 20t-2.5 16t-4.5 9.5t-11.5 7t-21 1.5q-37 -169 -83 -300t-118 -274h318q22 71 76 159.5t168 248.5q4 6 10.5 15t9 12t6.5 9.5t5.5 9t4 7.5
t3 7.5l1.5 7.5t1 9v10q0 28 -17 46.5t-41 29t-48.5 23t-41.5 38t-17 64.5q0 47 19.5 104t48.5 95h26q7 -47 51 -64l56 -19q95 -33 95 -137q0 -51 -27.5 -112.5t-72 -134.5t-92.5 -160.5t-95.5 -221.5t-74.5 -286z" />
    <glyph glyph-name="tav" unicode="&#x5ea;" horiz-adv-x="1026" 
d="M896 -17l-21 7v484q0 112 -8.5 169.5t-22.5 80.5t-48 52q-49 38 -142 38h-224l-29 -68q-62 -148 -62 -227q0 -86 13 -169q35 -171 35 -225v-7l-6 -118h-291l42 240h126l-6 160v28q0 182 74 310l45 76h-39q-73 0 -106.5 40t-33.5 108q0 95 60 164h29q18 -70 100 -70h223
q232 0 299 -66q67 -67 67 -292v-591q0 -87 -74 -124z" />
    <glyph glyph-name="vavvav" unicode="&#x5f0;" horiz-adv-x="1058" 
d="M266 1056q76 0 115 -53.5t39 -178.5v-717q0 -89 -68 -124l-22 7v673q0 70 -22 107q-12 19 -24 27t-46 17q-82 21 -116.5 45.5t-45.5 84.5q-2 9 -2 26q0 36 17 77t42 65q6 -2 27 0q7 -56 106 -56zM784 1056q76 0 115 -53.5t39 -178.5v-717q0 -89 -68 -124l-22 7v673
q0 70 -22 107q-12 19 -24 27t-46 17q-82 21 -116.5 45.5t-45.5 84.5q-2 9 -2 26q0 36 17 77t42 65q6 -2 27 0q7 -56 106 -56z" />
    <glyph glyph-name="vavyod" unicode="&#x5f1;" horiz-adv-x="1052" 
d="M778 1056q76 0 115 -53.5t39 -178.5v-717q0 -89 -68 -124l-22 7v673q0 70 -22 107q-12 19 -24 27t-46 17q-82 21 -116.5 45.5t-45.5 84.5q-2 9 -2 26q0 36 17 77t42 65q6 -2 27 0q7 -56 106 -56zM247 480l-28 32q53 40 73 81.5t20 111.5v36q0 38 -15.5 54.5t-71.5 18.5
q-80 3 -119.5 48t-39.5 116q0 72 47 157h27q9 -67 91 -75l35 -4q134 -11 134 -185v-76q0 -235 -153 -315z" />
    <glyph glyph-name="yodyod" unicode="&#x5f2;" horiz-adv-x="1024" 
d="M247 480l-28 32q53 40 73 81.5t20 111.5v36q0 38 -15.5 54.5t-71.5 18.5q-80 3 -119.5 48t-39.5 116q0 72 47 157h27q9 -67 91 -75l35 -4q134 -11 134 -185v-76q0 -235 -153 -315zM759 480l-28 32q53 40 73 81.5t20 111.5v36q0 38 -15.5 54.5t-71.5 18.5q-80 3 -119.5 48
t-39.5 116q0 72 47 157h27q9 -67 91 -75l35 -4q134 -11 134 -185v-76q0 -235 -153 -315z" />
    <glyph glyph-name="geresh" unicode="&#x5f3;" horiz-adv-x="428" 
d="M241 802l-93 -179h-41l8 284q5 189 138 189q78 0 78 -82q0 -40 -90 -212z" />
    <glyph glyph-name="gershayim" unicode="&#x5f4;" horiz-adv-x="761" 
d="M574 801.469l-93 -180.891h-41l8 286.999q5 190.995 138 190.995q78 0 78 -82.8652q0 -40.4229 -90 -214.238zM241 802l-93 -179h-41l8 284q5 189 138 189q78 0 78 -82q0 -40 -90 -212z" />
    <glyph glyph-name="thinspace" unicode="&#x2009;" horiz-adv-x="100" 
 />
    <glyph glyph-name="hairspace" unicode="&#x200a;" horiz-adv-x="40" 
 />
    <glyph glyph-name="zerononjoin" unicode="&#x200c;" 
d="M-108 1894l108 -108l106 107l34 -33l-107 -107l107 -107l-34 -33l-106 106l-108 -106l-33 33l107 107l-107 107z" />
    <glyph glyph-name="zerojoin" unicode="&#x200d;" 
d="M157 1637v93h-313v-93h-47v140h407v-140h-47z" />
    <glyph glyph-name="lrm" unicode="&#x200e;" 
d="M21 1860l33 34l141 -141l-141 -141l-33 34l84 84h-259v47h258z" />
    <glyph glyph-name="rlm" unicode="&#x200f;" 
d="M-20 1647l-33 -34l-141 141l141 141l33 -34l-84 -84h259v-47h-258z" />
    <glyph glyph-name="quoteleft" unicode="&#x2018;" horiz-adv-x="385" 
d="M292 958q0 -44 -29.5 -74t-70.5 -30q-56 0 -86 37t-30 99q0 99 52 178.5t164 169.5l24 -26q-62 -56 -84 -80q-37 -43 -50 -80q-6 -22 -6 -43q0 -53 42 -53q26 0 50 -27.5t24 -70.5z" />
    <glyph glyph-name="quoteright" unicode="&#x2019;" horiz-adv-x="384" 
d="M100 1232q0 44 30 75t70 31q56 0 86 -37t30 -99q0 -99 -52 -178.5t-164 -169.5l-24 26q46 43 84 82q38 44 50 78q6 22 6 43q0 53 -42 53q-26 0 -50 26.5t-24 69.5z" />
    <glyph glyph-name="quotesinglbase" unicode="&#x201a;" horiz-adv-x="384" 
d="M93 100q0 44 29.5 74t70.5 30q56 0 86 -37t30 -99q0 -99 -52 -178.5t-164 -169.5l-24 26q47 43 84 82q38 44 50 78q6 23 6 43q0 51 -44 51q-25 0 -48.5 28.5t-23.5 71.5z" />
    <glyph glyph-name="quotedblleft" unicode="&#x201c;" horiz-adv-x="727" 
d="M284 958q0 -44 -29.5 -74t-70.5 -30q-56 0 -86 37t-30 99q0 99 52 178.5t164 169.5l24 -26q-62 -56 -84 -80q-37 -43 -50 -80q-6 -22 -6 -43q0 -53 42 -53q26 0 50 -27.5t24 -70.5zM606 958q0 -44 -29.5 -74t-70.5 -30q-56 0 -86 37t-30 99q0 99 52 178.5t164 169.5
l24 -26q-62 -56 -84 -80q-37 -43 -50 -80q-6 -22 -6 -43q0 -53 42 -53q26 0 50 -27.5t24 -70.5z" />
    <glyph glyph-name="quotedblright" unicode="&#x201d;" horiz-adv-x="727" 
d="M100 1232q0 44 30 75t70 31q56 0 86 -37t30 -99q0 -99 -52 -178.5t-164 -169.5l-24 26q46 43 84 82q38 44 50 78q6 22 6 43q0 53 -42 53q-26 0 -50 26.5t-24 69.5zM423 1232q0 44 30 75t70 31q56 0 86 -37t30 -99q0 -99 -52 -178.5t-164 -169.5l-24 26q46 43 84 82
q38 44 50 78q6 22 6 43q0 53 -42 53q-26 0 -50 26.5t-24 69.5z" />
    <glyph glyph-name="quotedblbase" unicode="&#x201e;" horiz-adv-x="727" 
d="M93 100q0 44 29.5 74t70.5 30q56 0 86 -37t30 -99q0 -99 -52 -178.5t-164 -169.5l-24 26q47 43 84 82q38 44 50 78q6 23 6 43q0 51 -44 51q-25 0 -48.5 28.5t-23.5 71.5zM416 100q0 44 29.5 74t70.5 30q56 0 86 -37t30 -99q0 -99 -52 -178.5t-164 -169.5l-24 26
q47 43 84 82q38 44 50 78q6 23 6 43q0 51 -44 51q-25 0 -48.5 28.5t-23.5 71.5z" />
    <glyph glyph-name="newshekel" unicode="&#x20aa;" horiz-adv-x="1024" 
d="M711 204h-152l9 612v6q0 102 -48 138q-55 42 -152 42h-152l-3 -1002h-152l3 1056h320q176 0 256 -60t80 -176v-4zM319 837h152v-597q0 -108 48 -144q55 -42 152 -42h152v1002h152v-1056h-320q-177 0 -256 60q-80 60 -80 180v597z" />
    <glyph glyph-name="Euro" unicode="&#x20ac;" horiz-adv-x="1024" 
d="M168 644q19 128 71.5 228.5t146 163.5t213.5 63q138 0 272 -70v-239h-31q-21 254 -242 254q-52 0 -95 -23t-72.5 -60.5t-52 -90t-35 -108t-19.5 -118.5h473l-18 -62h-459q-3 -34 -3 -67h442l-19 -62h-421q7 -183 76 -298t183 -115q55 0 98 12.5t78 41t57 54.5t56 72
l25 -16q-34 -54 -62.5 -89t-70 -71t-95 -53.5t-118.5 -17.5q-90 0 -161 37t-116 103.5t-71 151.5t-34 188h-81l18 62h59v13v15.5v20v18.5h-77l18 62h67z" />
    <glyph glyph-name="dottedcircle" unicode="&#x25cc;" horiz-adv-x="1150" 
d="M164 527q0 72 60 72q61 0 61 -72q0 -71 -61 -71q-60 0 -60 71zM960 527q0 72 60 72q61 0 61 -72q0 -71 -61 -71q-60 0 -60 71zM562 995q0 72 60 72q61 0 61 -72q0 -71 -61 -71q-60 0 -60 71zM562 59q0 72 60 72q61 0 61 -72q0 -71 -61 -71q-60 0 -60 71zM909 761
q0 72 60 72q61 0 61 -72q0 -71 -61 -71q-60 0 -60 71zM909 293q0 72 60 72q61 0 61 -72q0 -71 -61 -71q-60 0 -60 71zM215 761q0 72 60 72q61 0 61 -72q0 -71 -61 -71q-60 0 -60 71zM215 293q0 72 60 72q61 0 61 -72q0 -71 -61 -71q-60 0 -60 71zM363 935q0 72 60 72
q61 0 61 -72q0 -71 -61 -71q-60 0 -60 71zM761 935q0 72 60 72q61 0 61 -72q0 -71 -61 -71q-60 0 -60 71zM363 119q0 72 60 72q61 0 61 -72q0 -71 -61 -71q-60 0 -60 71zM761 119q0 72 60 72q61 0 61 -72q0 -71 -61 -71q-60 0 -60 71z" />
    <glyph glyph-name="yodhiriq" unicode="&#xfb1d;" horiz-adv-x="454" 
d="M247 480l-28 32q53 40 73 81.5t20 111.5v36q0 38 -15.5 54.5t-71.5 18.5q-80 3 -119.5 48t-39.5 116q0 72 47 157h27q9 -67 91 -75l35 -4q134 -11 134 -185v-76q0 -235 -153 -315zM275 -339q-31 0 -50.5 23.5t-19.5 58.5q0 36 20 59t50 23q31 0 50.5 -23.5t19.5 -58.5
q0 -36 -20 -59t-50 -23z" />
    <glyph glyph-name="jsvarika" unicode="&#xfb1e;" 
d="M0 1188q-18 11 -78.5 75.5t-107.5 97.5v16q0 1 8 13q6 -2 178 -107q102 62 181 91q5 -5 5 -13v-16q-41 -21 -106.5 -85.5t-79.5 -71.5z" />
    <glyph glyph-name="yodyodpatah" unicode="&#xfb1f;" horiz-adv-x="919" 
d="M656 480l-28 32q53 40 73 81.5t20 111.5v36q0 38 -15.5 54.5t-71.5 18.5q-80 3 -119.5 48t-39.5 116q0 72 47 157h27q9 -67 91 -75l35 -4q134 -11 134 -185v-76q0 -235 -153 -315zM247 480l-28 32q53 40 73 81.5t20 111.5v36q0 38 -15.5 54.5t-71.5 18.5q-80 3 -119.5 48
t-39.5 116q0 72 47 157h27q9 -67 91 -75l35 -4q134 -11 134 -185v-76q0 -235 -153 -315zM852 287h-776v94h776v-94z" />
    <glyph glyph-name="ayin.alt" unicode="&#xfb20;" horiz-adv-x="920" 
d="M693 282q0 -242 -278 -275l-345 -40l44 235l254 28q0 164 -76 226q-52 43 -65 77.5t-13 111.5q0 59 19 169q-76 14 -115.5 54.5t-39.5 98.5q0 85 40 164h27q18 -72 86 -79h47q48 0 80.5 -42t32.5 -102q0 -75 -52 -141h-17q-6 29 -15.5 38t-32.5 9q0 -111 9 -141t51 -58
q40 -26 56 -42.5t25 -47t9 -87.5v-198l62 8q9 1 24 3t20.5 3t16 3.5t13.5 5.5l10 10t10 15t8 21.5t9 30t9 39.5q21 91 75 215.5t54 151.5q0 58 -51 68q-69 16 -101.5 59.5t-32.5 101.5q0 74 49 156h27q9 -41 34 -58q19 -12 58 -20.5t69.5 -14t54.5 -31t24 -70.5
q0 -39 -18 -88t-43 -103t-50.5 -118t-43.5 -155t-18 -191z" />
    <glyph glyph-name="alef.wide" unicode="&#xfb21;" horiz-adv-x="682" 
d="M297 96q0 28 -46.5 134.5t-46.5 153.5q0 144 233 288l-140 118q-79 90 -79 183q0 85 71 162h26q6 -88 52 -140q292 -372 913 -619q-40 96 -40 186q0 76 25 135.5t83 121.5q-76 12 -113.5 60t-37.5 118q0 76 43 138h24q17 -62 78 -77l86 -20q114 -27 114 -127
q0 -35 -18 -89q-31 -10 -110 -10q-96 -149 -96 -250q0 -76 54 -138l93 -107q79 -88 79 -184q0 -87 -71 -151h-27q-6 77 -52 129q-464 213 -918 519q-130 -77 -130 -165q0 -41 24 -92.5t53 -92t53 -92t24 -92.5q0 -96 -74 -96h-189v27q60 17 60 69z" />
    <glyph glyph-name="dalet.wide" unicode="&#xfb22;" horiz-adv-x="1538" 
d="M1330 596q0 -57 11 -211t11 -210q0 -176 -145 -200l-17 25q26 38 26 101q0 69 -4.5 173.5t-4.5 148.5q0 146 31.5 236t115.5 156h-1077q-72 0 -100 38.5t-28 108.5q0 99 61 164h26q16 -70 100 -70h1024q70 0 96.5 -26t26.5 -93q0 -45 -10 -71t-24.5 -36.5t-39.5 -35
t-45 -58.5q-34 -58 -34 -140z" />
    <glyph glyph-name="he.wide" unicode="&#xfb23;" horiz-adv-x="1681" 
d="M1531 604q0 -62 23 -212t23 -220q0 -178 -142 -200l-16 21q26 44 26 105q0 43 -8 177.5t-8 177.5q0 128 21 211.5t76 150.5l-1133 3q-133 0 -133 144q0 97 62 164h26q16 -70 94 -70l1033 -3q78 0 104 -27.5t26 -91.5v-49q0 -26 -11.5 -50.5t-25.5 -44.5t-25.5 -68.5
t-11.5 -117.5zM402 294q0 -20 4 -97.5t4 -97.5q0 -122 -150 -131l-14 22q26 28 26 73q0 42 -3 108t-3 80q0 107 40.5 171t113.5 64q20 0 34 -8v-27q-23 -15 -37.5 -60t-14.5 -97z" />
    <glyph glyph-name="kaf.wide" unicode="&#xfb24;" horiz-adv-x="1488" 
d="M1335 503v8q0 79 -8.5 131.5t-32 93t-66 59.5t-108.5 19h-775q-68 0 -105.5 41.5t-37.5 106.5q0 92 61 164h26q16 -70 100 -70h706q317 0 317 -519q0 -124 -12 -211.5t-35.5 -140t-49.5 -81.5t-64 -50q-95 -54 -251 -54h-829l84 240h858q121 0 171.5 58t50.5 205z" />
    <glyph glyph-name="lamed.wide" unicode="&#xfb25;" horiz-adv-x="1449" 
d="M275 1137q0 -48 27.5 -64.5t90.5 -16.5h826q92 0 143 -45q49 -46 49 -220v-108q0 -131 -58 -195l-190 -213q-69 -77 -69 -151q0 -15 3.5 -38.5t3.5 -33.5q0 -74 -67 -74t-67 83q0 118 148 269l146 151q62 65 62 166v60q0 72 -34 89.5t-151 17.5h-790q-76 0 -116 44.5
t-40 116.5q0 91 37 202l29 85q7 21 7 34q0 29 -36 47l-56 27q-43 21 -43 59q0 24 14.5 69t31.5 70h25q4 -31 42 -46l38 -15q63 -25 63 -77q0 -10 -41 -164l-14 -51q-14 -54 -14 -78z" />
    <glyph glyph-name="finalmem.wide" unicode="&#xfb26;" horiz-adv-x="1616" 
d="M222 0v539q0 81 61 149l128 148h-64q-145 0 -145 128q0 95 61 162h26q16 -70 95 -70h779q231 0 298 -67q69 -67 69 -291v-698h-1308zM462 814l-106 -156q-44 -65 -44 -155l2 -263h1131v234q-1 206 -40 285q-17 35 -61.5 45t-124.5 10h-757z" />
    <glyph glyph-name="resh.wide" unicode="&#xfb27;" horiz-adv-x="1484" 
d="M1355 -19l-21 7v486q0 164 -16.5 223t-76.5 91q-51 27 -127 27h-827q-69 0 -106 40.5t-37 106.5q0 94 61 164h26q16 -70 100 -70h727q231 0 298 -67q69 -67 69 -291v-618q0 -62 -70 -99z" />
    <glyph glyph-name="tav.wide" unicode="&#xfb28;" horiz-adv-x="1729" 
d="M1596 -16l-21 7v484q0 115 -6.5 170t-20 79.5t-46.5 52.5q-46 37 -141 37h-809l-36 -68q-62 -119 -62 -227q0 -2 -0.5 -8.5t-0.5 -10.5q0 -58 14 -150q35 -178 35 -225v-7l-6 -118h-291l53 240h118l-10 160q-1 0 0 16v17q0 188 75 305l49 76q-29 2 -39 0
q-73 0 -108.5 40.5t-35.5 107.5q0 96 62 164h27q17 -70 100 -70l808 1q230 0 298 -66q68 -68 68 -292v-591q0 -86 -74 -124z" />
    <glyph glyph-name="hebrewplussign" unicode="&#xfb29;" horiz-adv-x="1063" 
d="M975 429h-804v87h365v430h75v-430h364v-87z" />
    <glyph glyph-name="shinshindot" unicode="&#xfb2a;" horiz-adv-x="1292" 
d="M897 0h-559q-21 110 -51 227.5t-45 190t-15 143.5q0 139 35 243q-59 18 -89 63t-30 99q0 93 50 169h27q9 -34 30.5 -51t88.5 -30q44 -8 70.5 -50.5t26.5 -99.5q0 -83 -54 -150h-17q-6 28 -17 36t-39 8q-17 -78 -17 -204q0 -81 24 -160t83 -194l50 1q70 129 122 260.5
t102 315.5q-59 22 -88.5 66t-29.5 97q0 86 51 155h27q12 -56 56 -67l63 -14q58 -17 79 -48t21 -80v-6q0 -76 -66 -160h-17q-2 8 -3.5 20t-2.5 16t-4.5 9.5t-11.5 7t-21 1.5q-37 -169 -83 -300t-118 -274h318q22 71 76 159.5t168 248.5q4 6 10.5 15t9 12t6.5 9.5t5.5 9t4 7.5
t3 7.5l1.5 7.5t1 9v10q0 28 -17 46.5t-41 29t-48.5 23t-41.5 38t-17 64.5q0 47 19.5 104t48.5 95h26q7 -47 51 -64l56 -19q95 -33 95 -137q0 -51 -27.5 -112.5t-72 -134.5t-92.5 -160.5t-95.5 -221.5t-74.5 -286zM1185 1222q-31 0 -50.5 23.5t-19.5 58.5q0 36 20 59t50 23
q31 0 50.5 -23.5t19.5 -58.5q0 -36 -20 -59t-50 -23z" />
    <glyph glyph-name="shinsindot" unicode="&#xfb2b;" horiz-adv-x="1292" 
d="M897 0h-559q-21 110 -51 227.5t-45 190t-15 143.5q0 139 35 243q-59 18 -89 63t-30 99q0 93 50 169h27q9 -34 30.5 -51t88.5 -30q44 -8 70.5 -50.5t26.5 -99.5q0 -83 -54 -150h-17q-6 28 -17 36t-39 8q-17 -78 -17 -204q0 -81 24 -160t83 -194l50 1q70 129 122 260.5
t102 315.5q-59 22 -88.5 66t-29.5 97q0 86 51 155h27q12 -56 56 -67l63 -14q58 -17 79 -48t21 -80v-6q0 -76 -66 -160h-17q-2 8 -3.5 20t-2.5 16t-4.5 9.5t-11.5 7t-21 1.5q-37 -169 -83 -300t-118 -274h318q22 71 76 159.5t168 248.5q4 6 10.5 15t9 12t6.5 9.5t5.5 9t4 7.5
t3 7.5l1.5 7.5t1 9v10q0 28 -17 46.5t-41 29t-48.5 23t-41.5 38t-17 64.5q0 47 19.5 104t48.5 95h26q7 -47 51 -64l56 -19q95 -33 95 -137q0 -51 -27.5 -112.5t-72 -134.5t-92.5 -160.5t-95.5 -221.5t-74.5 -286zM318 1225q-31 0 -50.5 23.5t-19.5 58.5q0 36 20 59t50 23
q31 0 50.5 -23.5t19.5 -58.5q0 -36 -20 -59t-50 -23z" />
    <glyph glyph-name="shindageshshindot" unicode="&#xfb2c;" horiz-adv-x="1292" 
d="M1185 1222q-31 0 -50.5 23.5t-19.5 58.5q0 36 20 59t50 23q31 0 50.5 -23.5t19.5 -58.5q0 -36 -20 -59t-50 -23zM810 428q-31 0 -50.5 23.5t-19.5 58.5q0 36 20 59t50 23q31 0 50.5 -23.5t19.5 -58.5q0 -36 -20 -59t-50 -23zM897 0h-559q-21 110 -51 227.5t-45 190
t-15 143.5q0 139 35 243q-59 18 -89 63t-30 99q0 93 50 169h27q9 -34 30.5 -51t88.5 -30q44 -8 70.5 -50.5t26.5 -99.5q0 -83 -54 -150h-17q-6 28 -17 36t-39 8q-17 -78 -17 -204q0 -81 24 -160t83 -194l50 1q70 129 122 260.5t102 315.5q-59 22 -88.5 66t-29.5 97
q0 86 51 155h27q12 -56 56 -67l63 -14q58 -17 79 -48t21 -80v-6q0 -76 -66 -160h-17q-2 8 -3.5 20t-2.5 16t-4.5 9.5t-11.5 7t-21 1.5q-37 -169 -83 -300t-118 -274h318q22 71 76 159.5t168 248.5q4 6 10.5 15t9 12t6.5 9.5t5.5 9t4 7.5t3 7.5l1.5 7.5t1 9v10q0 28 -17 46.5
t-41 29t-48.5 23t-41.5 38t-17 64.5q0 47 19.5 104t48.5 95h26q7 -47 51 -64l56 -19q95 -33 95 -137q0 -51 -27.5 -112.5t-72 -134.5t-92.5 -160.5t-95.5 -221.5t-74.5 -286z" />
    <glyph glyph-name="shindageshsindot" unicode="&#xfb2d;" horiz-adv-x="1292" 
d="M318 1225q-31 0 -50.5 23.5t-19.5 58.5q0 36 20 59t50 23q31 0 50.5 -23.5t19.5 -58.5q0 -36 -20 -59t-50 -23zM810 428q-31 0 -50.5 23.5t-19.5 58.5q0 36 20 59t50 23q31 0 50.5 -23.5t19.5 -58.5q0 -36 -20 -59t-50 -23zM897 0h-559q-21 110 -51 227.5t-45 190
t-15 143.5q0 139 35 243q-59 18 -89 63t-30 99q0 93 50 169h27q9 -34 30.5 -51t88.5 -30q44 -8 70.5 -50.5t26.5 -99.5q0 -83 -54 -150h-17q-6 28 -17 36t-39 8q-17 -78 -17 -204q0 -81 24 -160t83 -194l50 1q70 129 122 260.5t102 315.5q-59 22 -88.5 66t-29.5 97
q0 86 51 155h27q12 -56 56 -67l63 -14q58 -17 79 -48t21 -80v-6q0 -76 -66 -160h-17q-2 8 -3.5 20t-2.5 16t-4.5 9.5t-11.5 7t-21 1.5q-37 -169 -83 -300t-118 -274h318q22 71 76 159.5t168 248.5q4 6 10.5 15t9 12t6.5 9.5t5.5 9t4 7.5t3 7.5l1.5 7.5t1 9v10q0 28 -17 46.5
t-41 29t-48.5 23t-41.5 38t-17 64.5q0 47 19.5 104t48.5 95h26q7 -47 51 -64l56 -19q95 -33 95 -137q0 -51 -27.5 -112.5t-72 -134.5t-92.5 -160.5t-95.5 -221.5t-74.5 -286z" />
    <glyph glyph-name="alefpatah" unicode="&#xfb2e;" horiz-adv-x="1048" 
d="M875 1039q106 -38 106 -137q0 -82 -66 -167h-19v25v12q0 18 -6.5 26.5t-29.5 8.5q-52 -81 -73 -136.5t-21 -107.5q0 -76 53 -138l93 -107q78 -88 78 -184q0 -87 -70 -151h-27q0 70 -52 129l-434 498q-111 -56 -111 -144q0 -34 19 -69t46.5 -65.5l55 -61t46.5 -66.5
t19 -70q0 -47 -33.5 -90.5t-69.5 -43.5h-3h-189v28q60 16 60 69q0 27 -43.5 130.5t-43.5 150.5q0 155 209 274l-122 139q-76 88 -76 183q0 88 68 162h26q0 -81 52 -140l376 -427q26 132 101 245q-149 24 -149 184q0 79 41 138h26q17 -62 77 -77zM741 -288h-300v94h300v-94z
" />
    <glyph glyph-name="alefkamats" unicode="&#xfb2f;" horiz-adv-x="1048" 
d="M875 1039q106 -38 106 -137q0 -82 -66 -167h-19v25v12q0 18 -6.5 26.5t-29.5 8.5q-52 -81 -73 -136.5t-21 -107.5q0 -76 53 -138l93 -107q78 -88 78 -184q0 -87 -70 -151h-27q0 70 -52 129l-434 498q-111 -56 -111 -144q0 -34 19 -69t46.5 -65.5l55 -61t46.5 -66.5
t19 -70q0 -47 -33.5 -90.5t-69.5 -43.5h-3h-189v28q60 16 60 69q0 27 -43.5 130.5t-43.5 150.5q0 155 209 274l-122 139q-76 88 -76 183q0 88 68 162h26q0 -81 52 -140l376 -427q26 132 101 245q-149 24 -149 184q0 79 41 138h26q17 -62 77 -77zM569 -288h-126v94h296v-94
h-128v-34v-3q0 -43 14 -85l36 -90q-23 -58 -50 -85q-22 -5 -42 1q-30 25 -48 84l36 90q12 26 12 84v3v35z" />
    <glyph glyph-name="alefmapiq" unicode="&#xfb30;" horiz-adv-x="1048" 
d="M875 1039q106 -38 106 -137q0 -82 -66 -167h-19v25v12q0 18 -6.5 26.5t-29.5 8.5q-52 -81 -73 -136.5t-21 -107.5q0 -76 53 -138l93 -107q78 -88 78 -184q0 -87 -70 -151h-27q0 70 -52 129l-434 498q-111 -56 -111 -144q0 -34 19 -69t46.5 -65.5l55 -61t46.5 -66.5
t19 -70q0 -47 -33.5 -90.5t-69.5 -43.5h-3h-189v28q60 16 60 69q0 27 -43.5 130.5t-43.5 150.5q0 155 209 274l-122 139q-76 88 -76 183q0 88 68 162h26q0 -81 52 -140l376 -427q26 132 101 245q-149 24 -149 184q0 79 41 138h26q17 -62 77 -77zM622 0q-31 0 -50.5 23.5
t-19.5 58.5q0 36 20 59t50 23q31 0 50.5 -23.5t19.5 -58.5q0 -36 -20 -59t-50 -23z" />
    <glyph glyph-name="betdagesh" unicode="&#xfb31;" horiz-adv-x="967" 
d="M561 814h-227q-72 0 -111.5 43t-39.5 109q0 94 61 164h26q17 -74 100 -74h146q80 0 135 -7t94.5 -26.5t62 -44t35 -69.5t16.5 -92.5t4 -123.5v-141q0 -117 -13.5 -183.5t-51.5 -128.5h146q0 -141 -38 -240h-769q-5 25 -5 46q0 39 11.5 95.5t32.5 98.5h568q25 128 25 285
q0 182 -31 247q-14 28 -54 35t-123 7zM481 437q-31 0 -50.5 23.5t-19.5 58.5q0 36 20 59t50 23q31 0 50.5 -23.5t19.5 -58.5q0 -36 -20 -59t-50 -23z" />
    <glyph glyph-name="gimeldagesh" unicode="&#xfb32;" horiz-adv-x="665" 
d="M468 599q0 -54 27 -120.5t59.5 -119.5t59.5 -122t27 -127q0 -73 -37 -128h-24l-144 344h-14l-134 -326l-212 -18l52 242q14 2 49.5 7.5t48.5 8.5t36 10t38.5 18t29.5 28q72 82 72 302q0 56 -4.5 93.5t-9 58t-18.5 32.5t-22.5 15t-30.5 8l-39 9q-69 16 -90 50t-22 99
q0 87 63 160h27q2 -10 2.5 -23t1 -19t3.5 -12.5t12 -10t24 -4.5l73 -7q112 -10 112 -142q0 -39 -8 -153t-8 -153zM255 437q-31 0 -50.5 23.5t-19.5 58.5q0 36 20 59t50 23q31 0 50.5 -23.5t19.5 -58.5q0 -36 -20 -59t-50 -23z" />
    <glyph glyph-name="daleddagesh" unicode="&#xfb33;" horiz-adv-x="879" 
d="M671 596q0 -56 11 -210.5t11 -210.5q0 -176 -145 -200l-17 25q26 40 26 101q0 69 -4.5 173.5t-4.5 148.5q0 143 34.5 234t119.5 157h-448q-75 0 -114.5 41t-39.5 107q0 99 61 164h26q17 -70 100 -70h414q70 0 96.5 -26t26.5 -93q0 -37 -6 -59.5t-17.5 -36.5t-25 -24.5
t-33 -31.5t-36.5 -49q-35 -55 -35 -140zM348 437q-31 0 -50.5 23.5t-19.5 58.5q0 36 20 59t50 23q31 0 50.5 -23.5t19.5 -58.5q0 -36 -20 -59t-50 -23z" />
    <glyph glyph-name="hedagesh" unicode="&#xfb34;" horiz-adv-x="1182" 
d="M922 607q0 -67 23 -216t23 -216q0 -177 -143 -200l-16 21q26 46 26 105q0 44 -8 178.5t-8 176.5q0 128 20.5 210t76.5 148h-570q-73 0 -111.5 41t-38.5 107q0 99 61 164h27q17 -70 94 -70h488q77 0 103 -28t26 -91v-49q0 -26 -11.5 -50.5t-25 -44.5t-25 -68.5
t-11.5 -117.5zM361 293q0 -19 4 -97t4 -98q0 -122 -150 -131l-14 22q26 28 26 73q0 19 -3 94t-3 94q0 108 40 177t113 69q20 0 34 -8v-27q-23 -15 -37 -65t-14 -103zM588 437q-31 0 -50.5 23.5t-19.5 58.5q0 36 20 59t50 23q31 0 50.5 -23.5t19.5 -58.5q0 -36 -20 -59
t-50 -23z" />
    <glyph glyph-name="vavdagesh" unicode="&#xfb35;" horiz-adv-x="510" 
d="M292 1056q76 0 115 -53.5t39 -178.5v-717q0 -89 -68 -124l-22 7v673q0 70 -22 107q-12 19 -24 27t-46 17q-82 21 -116.5 45.5t-45.5 84.5q-2 9 -2 26q0 36 17 77t42 65q6 -2 27 0q7 -56 106 -56zM188 437q-31 0 -50.5 23.5t-19.5 58.5q0 36 20 59t50 23q31 0 50.5 -23.5
t19.5 -58.5q0 -36 -20 -59t-50 -23z" />
    <glyph glyph-name="zaindagesh" unicode="&#xfb36;" horiz-adv-x="656" 
d="M568 736h-17q-5 26 -37.5 45.5t-66.5 26.5q-18 -86 -18 -154q0 -82 31 -236t31 -225q0 -196 -142 -218l-19 20q32 46 32 110q0 49 -16 183t-16 184q0 178 74 336q-101 0 -152 44.5t-51 118.5q0 94 55 164h27q12 -57 66 -69q151 -5 232 -58q42 -27 42 -113q0 -88 -55 -159
zM170 462q-31 0 -50.5 23.5t-19.5 58.5q0 36 20 59t50 23q31 0 50.5 -23.5t19.5 -58.5q0 -36 -20 -59t-50 -23z" />
    <glyph glyph-name="tetdagesh" unicode="&#xfb38;" horiz-adv-x="1015" 
d="M262 814q-70 13 -99 49t-29 106q0 81 42 166h27q7 -73 108 -78q119 -3 119 -128q0 -22 -8.5 -81.5t-15.5 -80.5q-13 -5 -15 -0.5t-9.5 18t-19.5 18.5q-4 1 -22 6t-30 5q-33 -108 -33 -182q0 -92 24 -178.5t79 -213.5h414q41 87 56 174t15 215q0 101 -45 143t-112 42
q-144 0 -193 -159l-32 8q84 405 272 405q187 0 187 -438q0 -270 -128 -630h-530q-1 68 -36.5 269.5t-35.5 295.5q0 120 50 249zM588 467q-31 0 -50.5 23.5t-19.5 58.5q0 36 20 59t50 23q31 0 50.5 -23.5t19.5 -58.5q0 -36 -20 -59t-50 -23z" />
    <glyph glyph-name="yoddagesh" unicode="&#xfb39;" horiz-adv-x="464" 
d="M257 480l-28 32q53 40 73 81.5t20 111.5v36q0 38 -15.5 54.5t-71.5 18.5q-80 3 -119.5 48t-39.5 116q0 72 47 157h27q9 -67 91 -75l35 -4q134 -11 134 -185v-76q0 -235 -153 -315zM153 580q-31 0 -50.5 23.5t-19.5 58.5q0 36 20 59t50 23q31 0 50.5 -23.5t19.5 -58.5
q0 -36 -20 -59t-50 -23z" />
    <glyph glyph-name="finalkhafdagesh" unicode="&#xfb3a;" horiz-adv-x="846" 
d="M737 800q-17 -20 -17 -71v-9l32 -897q0 -5 0.5 -13t0.5 -12q0 -64 -21.5 -98t-74.5 -54l-18 9l-3 1160h-387q-69 0 -105 41t-36 107q0 94 61 164h26q15 -70 107 -70l361 -1q127 0 127 -110v-31q0 -43 -21 -67zM371 437q-31 0 -50.5 23.5t-19.5 58.5q0 36 20 59t50 23
q31 0 50.5 -23.5t19.5 -58.5q0 -36 -20 -59t-50 -23z" />
    <glyph glyph-name="khafdagesh" unicode="&#xfb3b;" horiz-adv-x="942" 
d="M774 507v10q0 79 -8 129.5t-29.5 91t-63 58.5t-106.5 18h-275q-68 0 -102 40.5t-34 107.5q0 94 61 164h26q16 -70 100 -70h206q317 0 317 -519q0 -124 -12 -211.5t-35.5 -140t-49.5 -81.5t-64 -50q-95 -54 -251 -54h-329l45 240h379q121 0 173 60t52 207zM483 437
q-31 0 -50.5 23.5t-19.5 58.5q0 36 20 59t50 23q31 0 50.5 -23.5t19.5 -58.5q0 -36 -20 -59t-50 -23z" />
    <glyph glyph-name="lameddagesh" unicode="&#xfb3c;" horiz-adv-x="901" 
d="M227 1137q0 -48 27.5 -64.5t90.5 -16.5h326q92 0 143 -45q49 -46 49 -220v-108q0 -131 -58 -195l-190 -213q-69 -77 -69 -151q0 -15 3.5 -38.5t3.5 -33.5q0 -74 -67 -74q-33 0 -55.5 32t-22.5 74q0 54 36.5 106.5t122.5 139.5l146 151q62 65 62 166v60q0 72 -33.5 89.5
t-150.5 17.5h-290q-76 0 -116.5 44.5t-40.5 116.5q0 91 37 202l29 85q7 21 7 34q0 29 -36 47l-56 27q-43 21 -43 59q0 24 15.5 71t32.5 72h25q4 -31 42 -46l38 -15q63 -25 63 -77q0 -7 -43 -168l-14 -51q-14 -54 -14 -78zM482 487q-31 0 -50.5 23.5t-19.5 58.5q0 36 20 59
t50 23q31 0 50.5 -23.5t19.5 -58.5q0 -36 -20 -59t-50 -23z" />
    <glyph glyph-name="memdagseh" unicode="&#xfb3e;" horiz-adv-x="1094" 
d="M681 1069q89 -15 154.5 -69t101.5 -136t53 -174.5t17 -199.5q0 -138 -37 -319l-34 -171h-499l58 240h408q13 50 16 94t3 134v3q0 138 -62.5 224t-163.5 88h-7q-173 0 -289 -173q-135 -201 -136 -610h-67q-4 45 -4 87q0 211 50 363.5t165 278.5q5 30 5 42q0 11 -2.5 17
t-11 9.5t-17 5t-28 4.5t-36.5 7q-60 13 -96 61t-36 104q0 83 42 156h27q18 -61 77 -70l62 -9q84 -12 84 -85q0 -18 -4.5 -45.5t-4.5 -39.5q0 -42 31 -61q166 93 181 244zM625 437q-31 0 -50.5 23.5t-19.5 58.5q0 36 20 59t50 23q31 0 50.5 -23.5t19.5 -58.5q0 -36 -20 -59
t-50 -23z" />
    <glyph glyph-name="nundagesh" unicode="&#xfb40;" horiz-adv-x="614" 
d="M487 559q0 -102 31 -243.5t31 -185.5q0 -90 -10 -130h-470l37 239l303 1l-3 132v26q0 52 9.5 163.5t9.5 161.5v7q-2 39 -17 59.5t-57 21.5q-157 2 -160 169v4q0 95 61 156h27q4 -23 6 -31t8.5 -21.5t18.5 -19t31 -6.5l44 -5q136 -15 136 -138q0 -49 -18 -180t-18 -180z
M234 437q-31 0 -50.5 23.5t-19.5 58.5q0 36 20 59t50 23q31 0 50.5 -23.5t19.5 -58.5q0 -36 -20 -59t-50 -23z" />
    <glyph glyph-name="samekhdagesh" unicode="&#xfb41;" horiz-adv-x="1038" 
d="M962 537q0 -131 -16.5 -227.5t-55.5 -174t-111.5 -117.5t-177.5 -40h-37q-90 0 -165 39t-122.5 103.5t-74 146t-26.5 169.5q0 122 27 208.5t85 172.5q-50 0 -81 50.5t-31 94.5q0 93 63 164h26q17 -70 99 -70h244q84 0 146 -24.5t110.5 -81.5t73 -160.5t24.5 -252.5z
M872 502q0 86 -9.5 141t-35.5 95.5t-72.5 58t-120.5 17.5h-287q-42 -71 -59.5 -140t-17.5 -157q0 -158 75 -235.5t193 -77.5h88q124 0 185 72t61 226zM563 467q-31 0 -50.5 23.5t-19.5 58.5q0 36 20 59t50 23q31 0 50.5 -23.5t19.5 -58.5q0 -36 -20 -59t-50 -23z" />
    <glyph glyph-name="finalpedagesh" unicode="&#xfb43;" horiz-adv-x="886" 
d="M408 390q-12 0 -40.5 4.5t-47.5 4.5q-72 0 -114 -53h-33q-32 66 -32 129q0 174 121 339q-43 9 -67.5 50.5t-24.5 97.5q0 95 63 164h26q18 -70 98 -70h151h28q191 0 239 -103q29 -59 36 -228l20 -450q12 -280 12 -476q0 -76 -19 -102.5t-72 -46.5l-23 8v837
q0 87 -7.5 147.5t-19 94t-33 51t-41.5 22t-52 4.5h-267q-26 -42 -35.5 -57.5t-18 -39.5t-8.5 -46q0 -44 21.5 -61.5t86.5 -30.5q87 -15 87 -83v-68q0 -38 -34 -38zM591 388q-31 0 -50.5 23.5t-19.5 58.5q0 36 20 59t50 23q31 0 50.5 -23.5t19.5 -58.5q0 -36 -20 -59t-50 -23
z" />
    <glyph glyph-name="pedagesh" unicode="&#xfb44;" horiz-adv-x="912" 
d="M382 459q-9 0 -44 4t-44 4q-73 0 -114 -53h-32q-38 86 -38 163q0 81 20 134t74 103l-40 45q-11 12 -18.5 43t-7.5 60q0 96 61 164h26q16 -70 100 -70h190q313 0 313 -519q0 -337 -100 -437t-308 -100h-310l58 240h330q49 0 82.5 4t69 19.5t56.5 43t35 77t14 119.5
q0 83 -10 140.5t-26.5 90.5t-45.5 51t-57.5 23.5t-72.5 5.5h-262q-65 -41 -65 -106q0 -30 19.5 -44.5t48 -19t56.5 -9t47.5 -21t19.5 -48.5v-55q0 -52 -25 -52zM585 450q-31 0 -50.5 23.5t-19.5 58.5q0 36 20 59t50 23q31 0 50.5 -23.5t19.5 -58.5q0 -36 -20 -59t-50 -23z
" />
    <glyph glyph-name="tsadidagesh" unicode="&#xfb46;" horiz-adv-x="968" 
d="M273 814q-74 0 -110.5 43.5t-36.5 113.5q0 93 44 164h27q16 -72 82 -77l35 -2q71 -5 96 -33t25 -103q0 -24 -8 -96t-8 -96q0 -80 56 -127l95 -79q65 175 146 284q-110 25 -110 165q0 83 42 164h28q9 -70 88 -77l55 -4q49 -4 76 -45.5t27 -102.5q0 -93 -57 -165h-17
q-4 18 -5.5 24t-7 16.5t-14.5 14t-23 3.5q-10 0 -15 -1q-49 -46 -82 -121t-34 -142q0 -92 87 -164l133 -110l-57 -261h-625l42 240h452l-281 228q-62 50 -62 112v3l5 144v7q0 44 -20 62t-68 18zM251 290q-31 0 -50.5 23.5t-19.5 58.5q0 36 20 59t50 23q31 0 50.5 -23.5
t19.5 -58.5q0 -36 -20 -59t-50 -23z" />
    <glyph glyph-name="kofdagesh" unicode="&#xfb47;" horiz-adv-x="997" 
d="M692 1056q135 0 189.5 -65.5t54.5 -210.5v-97q0 -111 -23.5 -169t-82.5 -98l-220 -146q-78 -51 -78 -152q0 -5 1.5 -30t1.5 -41q0 -69 -69 -69q-33 0 -65 27t-32 64q0 77 54 139.5t155 129.5l191 128q78 52 78 157v72q0 72 -33.5 95.5t-132.5 23.5h-372q-70 0 -106.5 41
t-36.5 107q0 94 61 164h26q15 -70 100 -70h339zM225 -345l-21 6v860q0 87 72 150l36 6v-944q0 -26 -87 -78zM533 462q-31 0 -50.5 23.5t-19.5 58.5q0 36 20 59t50 23q31 0 50.5 -23.5t19.5 -58.5q0 -36 -20 -59t-50 -23z" />
    <glyph glyph-name="reshdagesh" unicode="&#xfb48;" horiz-adv-x="883" 
d="M757 -19l-21 7v486q0 164 -17 222t-77 91q-48 27 -126 27h-275q-69 0 -106 41t-37 107q0 94 61 164h26q17 -70 100 -70h175q231 0 298 -67q69 -66 69 -291v-618q0 -62 -70 -99zM426 437q-31 0 -50.5 23.5t-19.5 58.5q0 36 20 59t50 23q31 0 50.5 -23.5t19.5 -58.5
q0 -36 -20 -59t-50 -23z" />
    <glyph glyph-name="shindagesh" unicode="&#xfb49;" horiz-adv-x="1292" 
d="M897 0h-559q-21 110 -51 227.5t-45 190t-15 143.5q0 139 35 243q-59 18 -89 63t-30 99q0 93 50 169h27q9 -34 30.5 -51t88.5 -30q44 -8 70.5 -50.5t26.5 -99.5q0 -83 -54 -150h-17q-6 28 -17 36t-39 8q-17 -78 -17 -204q0 -81 24 -160t83 -194l50 1q70 129 122 260.5
t102 315.5q-59 22 -88.5 66t-29.5 97q0 86 51 155h27q12 -56 56 -67l63 -14q58 -17 79 -48t21 -80v-6q0 -76 -66 -160h-17q-2 8 -3.5 20t-2.5 16t-4.5 9.5t-11.5 7t-21 1.5q-37 -169 -83 -300t-118 -274h318q22 71 76 159.5t168 248.5q4 6 10.5 15t9 12t6.5 9.5t5.5 9t4 7.5
t3 7.5l1.5 7.5t1 9v10q0 28 -17 46.5t-41 29t-48.5 23t-41.5 38t-17 64.5q0 47 19.5 104t48.5 95h26q7 -47 51 -64l56 -19q95 -33 95 -137q0 -51 -27.5 -112.5t-72 -134.5t-92.5 -160.5t-95.5 -221.5t-74.5 -286zM810 428q-31 0 -50.5 23.5t-19.5 58.5q0 36 20 59t50 23
q31 0 50.5 -23.5t19.5 -58.5q0 -36 -20 -59t-50 -23z" />
    <glyph glyph-name="tavdagesh" unicode="&#xfb4a;" horiz-adv-x="1026" 
d="M896 -17l-21 7v484q0 112 -8.5 169.5t-22.5 80.5t-48 52q-49 38 -142 38h-224l-29 -68q-62 -148 -62 -227q0 -86 13 -169q35 -171 35 -225v-7l-6 -118h-291l42 240h126l-6 160v28q0 182 74 310l45 76h-39q-73 0 -106.5 40t-33.5 108q0 95 60 164h29q18 -70 100 -70h223
q232 0 299 -66q67 -67 67 -292v-591q0 -87 -74 -124zM634 437q-31 0 -50.5 23.5t-19.5 58.5q0 36 20 59t50 23q31 0 50.5 -23.5t19.5 -58.5q0 -36 -20 -59t-50 -23z" />
    <glyph glyph-name="vavholam" unicode="&#xfb4b;" horiz-adv-x="484" 
d="M266 1056q76 0 115 -53.5t39 -178.5v-717q0 -89 -68 -124l-22 7v673q0 70 -22 107q-12 19 -24 27t-46 17q-82 21 -116.5 45.5t-45.5 84.5q-2 9 -2 26q0 36 17 77t42 65q6 -2 27 0q7 -56 106 -56zM379 1207q-31 0 -50.5 23.5t-19.5 58.5q0 36 20 59t50 23q31 0 50.5 -23.5
t19.5 -58.5q0 -36 -20 -59t-50 -23z" />
    <glyph glyph-name="betrafe" unicode="&#xfb4c;" horiz-adv-x="967" 
d="M561 814h-227q-72 0 -111.5 43t-39.5 109q0 94 61 164h26q17 -74 100 -74h146q80 0 135 -7t94.5 -26.5t62 -44t35 -69.5t16.5 -92.5t4 -123.5v-141q0 -117 -13.5 -183.5t-51.5 -128.5h146q0 -141 -38 -240h-769q-5 25 -5 46q0 39 11.5 95.5t32.5 98.5h568q25 128 25 285
q0 182 -31 247q-14 28 -54 35t-123 7zM701 1224h-388v94h388v-94z" />
    <glyph glyph-name="khafrafe" unicode="&#xfb4d;" horiz-adv-x="942" 
d="M774 507v10q0 79 -8 129.5t-29.5 91t-63 58.5t-106.5 18h-275q-68 0 -102 40.5t-34 107.5q0 94 61 164h26q16 -70 100 -70h206q317 0 317 -519q0 -124 -12 -211.5t-35.5 -140t-49.5 -81.5t-64 -50q-95 -54 -251 -54h-329l45 240h379q121 0 173 60t52 207zM688 1224h-388
v94h388v-94z" />
    <glyph glyph-name="perafe" unicode="&#xfb4e;" horiz-adv-x="912" 
d="M382 459q-9 0 -44 4t-44 4q-73 0 -114 -53h-32q-38 86 -38 163q0 81 20 134t74 103l-40 45q-11 12 -18.5 43t-7.5 60q0 96 61 164h26q16 -70 100 -70h190q313 0 313 -519q0 -337 -100 -437t-308 -100h-310l58 240h330q49 0 82.5 4t69 19.5t56.5 43t35 77t14 119.5
q0 83 -10 140.5t-26.5 90.5t-45.5 51t-57.5 23.5t-72.5 5.5h-262q-65 -41 -65 -106q0 -30 19.5 -44.5t48 -19t56.5 -9t47.5 -21t19.5 -48.5v-55q0 -52 -25 -52zM705 1224h-388v94h388v-94z" />
    <glyph glyph-name="gimelrafe" horiz-adv-x="665" 
d="M468 599q0 -54 27 -120.5t59.5 -119.5t59.5 -122t27 -127q0 -73 -37 -128h-24l-144 344h-14l-134 -326l-212 -18l52 242q14 2 49.5 7.5t48.5 8.5t36 10t38.5 18t29.5 28q72 82 72 302q0 56 -4.5 93.5t-9 58t-18.5 32.5t-22.5 15t-30.5 8l-39 9q-69 16 -90 50t-22 99
q0 87 63 160h27q2 -10 2.5 -23t1 -19t3.5 -12.5t12 -10t24 -4.5l73 -7q112 -10 112 -142q0 -39 -8 -153t-8 -153zM649 1224h-388v94h388v-94z" />
    <glyph glyph-name="daletrafe" horiz-adv-x="879" 
d="M671 596q0 -56 11 -210.5t11 -210.5q0 -176 -145 -200l-17 25q26 40 26 101q0 69 -4.5 173.5t-4.5 148.5q0 143 34.5 234t119.5 157h-448q-75 0 -114.5 41t-39.5 107q0 99 61 164h26q17 -70 100 -70h414q70 0 96.5 -26t26.5 -93q0 -37 -6 -59.5t-17.5 -36.5t-25 -24.5
t-33 -31.5t-36.5 -49q-35 -55 -35 -140zM656 1224h-388v94h388v-94z" />
    <glyph glyph-name="herafe" horiz-adv-x="1182" 
d="M922 607q0 -67 23 -216t23 -216q0 -177 -143 -200l-16 21q26 46 26 105q0 44 -8 178.5t-8 176.5q0 128 20.5 210t76.5 148h-570q-73 0 -111.5 41t-38.5 107q0 99 61 164h27q17 -70 94 -70h488q77 0 103 -28t26 -91v-49q0 -26 -11.5 -50.5t-25 -44.5t-25 -68.5
t-11.5 -117.5zM361 293q0 -19 4 -97t4 -98q0 -122 -150 -131l-14 22q26 28 26 73q0 19 -3 94t-3 94q0 108 40 177t113 69q20 0 34 -8v-27q-23 -15 -37 -65t-14 -103zM777 1224h-388v94h388v-94z" />
    <glyph glyph-name="vavholamhaser" horiz-adv-x="484" 
d="M266 1056q76 0 115 -53.5t39 -178.5v-717q0 -89 -68 -124l-22 7v673q0 70 -22 107q-12 19 -24 27t-46 17q-82 21 -116.5 45.5t-45.5 84.5q-2 9 -2 26q0 36 17 77t42 65q6 -2 27 0q7 -56 106 -56zM94 1234q-31 0 -50.5 23.5t-19.5 58.5q0 36 20 59t50 23q31 0 50.5 -23.5
t19.5 -58.5q0 -36 -20 -59t-50 -23z" />
    <glyph glyph-name="finalkafsheva" horiz-adv-x="846" 
d="M737 800q-17 -20 -17 -71v-9l32 -897q0 -5 0.5 -13t0.5 -12q0 -64 -21.5 -98t-74.5 -54l-18 9l-3 1160h-387q-69 0 -105 41t-36 107q0 94 61 164h26q15 -70 107 -70l361 -1q127 0 127 -110v-31q0 -43 -21 -67zM371 223q-31 0 -50.5 23.5t-19.5 58.5q0 36 20 59t50 23
q31 0 50.5 -23.5t19.5 -58.5q0 -36 -20 -59t-50 -23zM371 477q-31 0 -50.5 23.5t-19.5 58.5q0 36 20 59t50 23q31 0 50.5 -23.5t19.5 -58.5q0 -36 -20 -59t-50 -23z" />
    <glyph glyph-name="finalkafqamats" horiz-adv-x="846" 
d="M737 800q-17 -20 -17 -71v-9l32 -897q0 -5 0.5 -13t0.5 -12q0 -64 -21.5 -98t-74.5 -54l-18 9l-3 1160h-387q-69 0 -105 41t-36 107q0 94 61 164h26q15 -70 107 -70l361 -1q127 0 127 -110v-31q0 -43 -21 -67zM329 522h-126v94h296v-94h-128v-34v-3q0 -43 14 -85l36 -90
q-23 -58 -50 -85q-22 -5 -42 1q-30 25 -48 84l36 90q12 26 12 84v3v35z" />
    <glyph glyph-name="lamedholam" horiz-adv-x="921" 
d="M247 1137q0 -48 27.5 -64.5t90.5 -16.5h326q92 0 143 -45q49 -46 49 -220v-108q0 -131 -58 -195l-190 -213q-69 -77 -69 -151q0 -15 3.5 -38.5t3.5 -33.5q0 -74 -67 -74q-33 0 -55.5 32t-22.5 74q0 54 36.5 106.5t122.5 139.5l146 151q62 65 62 166v60q0 72 -33.5 89.5
t-150.5 17.5h-290q-76 0 -116.5 44.5t-40.5 116.5q0 91 37 202l29 85q7 21 7 34q0 29 -36 47l-56 27q-43 21 -43 59q0 24 15.5 71t32.5 72h25q4 -31 42 -46l38 -15q63 -25 63 -77q0 -7 -43 -168l-14 -51q-14 -54 -14 -78zM-17 1172q-31 0 -50.5 23.5t-19.5 58.5q0 36 20 59
t50 23q31 0 50.5 -23.5t19.5 -58.5q0 -36 -20 -59t-50 -23z" />
    <glyph glyph-name="lameddageshholam" horiz-adv-x="921" 
d="M-17 1172q-31 0 -50.5 23.5t-19.5 58.5q0 36 20 59t50 23q31 0 50.5 -23.5t19.5 -58.5q0 -36 -20 -59t-50 -23zM247 1137q0 -48 27.5 -64.5t90.5 -16.5h326q92 0 143 -45q49 -46 49 -220v-108q0 -131 -58 -195l-190 -213q-69 -77 -69 -151q0 -15 3.5 -38.5t3.5 -33.5
q0 -74 -67 -74q-33 0 -55.5 32t-22.5 74q0 54 36.5 106.5t122.5 139.5l146 151q62 65 62 166v60q0 72 -33.5 89.5t-150.5 17.5h-290q-76 0 -116.5 44.5t-40.5 116.5q0 91 37 202l29 85q7 21 7 34q0 29 -36 47l-56 27q-43 21 -43 59q0 24 15.5 71t32.5 72h25q4 -31 42 -46
l38 -15q63 -25 63 -77q0 -7 -43 -168l-14 -51q-14 -54 -14 -78zM435 487q-31 0 -50.5 23.5t-19.5 58.5q0 36 20 59t50 23q31 0 50.5 -23.5t19.5 -58.5q0 -36 -20 -59t-50 -23z" />
    <glyph glyph-name="tavrafe" horiz-adv-x="1026" 
d="M896 -17l-21 7v484q0 112 -8.5 169.5t-22.5 80.5t-48 52q-49 38 -142 38h-224l-29 -68q-62 -148 -62 -227q0 -86 13 -169q35 -171 35 -225v-7l-6 -118h-291l42 240h126l-6 160v28q0 182 74 310l45 76h-39q-73 0 -106.5 40t-33.5 108q0 95 60 164h29q18 -70 100 -70h223
q232 0 299 -66q67 -67 67 -292v-591q0 -87 -74 -124zM828 1224h-388v94h388v-94z" />
    <glyph glyph-name="hatafsegol_meteg" 
d="M154 -575h-72v390h72v-390zM292 -587q-31 0 -50.5 23.5t-19.5 58.5q0 36 20 59t50 23t49.5 -23.5t19.5 -58.5q0 -36 -19.5 -59t-49.5 -23zM292 -333q-31 0 -50.5 23.5t-19.5 58.5q0 36 20 59t50 23t49.5 -23.5t19.5 -58.5q0 -36 -19.5 -59t-49.5 -23zM-55 -169
q30 0 49.5 -23.5t19.5 -58.5q0 -36 -19.5 -59t-49.5 -23q-31 0 -50.5 23.5t-19.5 58.5q0 36 20 59t50 23zM-173 -423q30 0 49.5 -23.5t19.5 -58.5q0 -36 -19.5 -59t-49.5 -23q-31 0 -50.5 23.5t-19.5 58.5q0 36 20 59t50 23zM-292 -169q31 0 50.5 -23.5t19.5 -58.5
q0 -36 -20 -59t-50 -23t-49.5 23.5t-19.5 58.5q0 36 19.5 59t49.5 23z" />
    <glyph glyph-name="hatafpatah_meteg" 
d="M-26 -286h-300v94h300v-94zM118 -575h-72v390h72v-390zM256 -587q-31 0 -50.5 23.5t-19.5 58.5q0 36 20 59t50 23q31 0 50.5 -23.5t19.5 -58.5q0 -36 -20.5 -59t-49.5 -23zM256 -333q-31 0 -50.5 23.5t-19.5 58.5q0 36 20 59t50 23q31 0 50.5 -23.5t19.5 -58.5
q0 -36 -20.5 -59t-49.5 -23z" />
    <glyph glyph-name="hatafqamats_meteg" 
d="M-200 -284h-126v94h296v-94h-127v-34v-3q0 -50 13 -85l35 -90q-20 -55 -49 -85q-23 -5 -42 1q-31 26 -47 84l35 90q12 26 12 84v3v35zM118 -576h-72v390h72v-390zM257 -587q-31 0 -50.5 23.5t-19.5 58.5q0 36 20 59t50 23t49.5 -23.5t19.5 -58.5q0 -36 -19.5 -59
t-49.5 -23zM257 -333q-31 0 -50.5 23.5t-19.5 58.5q0 36 20 59t50 23t49.5 -23.5t19.5 -58.5q0 -36 -19.5 -59t-49.5 -23z" />
  </font>
</defs>
</svg>
